<svg width="68" height="38" viewBox="0 0 68 38" fill="none" xmlns="http://www.w3.org/2000/svg">
<path d="M4.21231 25.0911C2.95256 25.0911 1.929 24.6985 1.14165 23.9134C0.380552 23.1282 0 21.9505 0 20.3803C0 19.726 0.10498 18.8754 0.314939 17.8286L2.3725 9.04427C2.53847 8.33568 3.17045 7.83463 3.89822 7.83463H6.35136C7.36022 7.83463 8.1062 8.77407 7.87762 9.75669L5.82637 18.5745C5.7214 18.967 5.66891 19.3858 5.66891 19.8307C5.66891 20.3541 5.78701 20.7336 6.02321 20.9691C6.28566 21.1785 6.70558 21.2832 7.28297 21.2832C8.04407 21.2832 8.75269 20.9691 9.40881 20.341C10.0649 19.6867 10.5373 18.8493 10.826 17.8286H12.4795C11.5084 20.6551 10.2618 22.5786 8.73956 23.5993C7.21736 24.5938 5.70827 25.0911 4.21231 25.0911Z" fill="#703EFE"/>
<path d="M25.022 25.0911C23.421 25.0911 22.24 24.6723 21.4789 23.8349C20.7441 22.9712 20.3766 21.9113 20.3766 20.6551C20.3766 20.1055 20.4422 19.4905 20.5735 18.81C20.7047 18.1034 20.8359 17.4229 20.9671 16.7687C21.1246 16.1144 21.2296 15.6957 21.2821 15.5125C21.492 14.5965 21.6889 13.6936 21.8726 12.8037C22.0563 11.9139 22.1482 11.1942 22.1482 10.6446C22.1482 9.30991 21.6758 8.64254 20.7309 8.64254C20.0486 8.64254 19.4449 8.98277 18.92 9.66321C18.3951 10.3175 17.9752 11.1811 17.6603 12.2542L15.247 23.6141C15.0932 24.3379 14.4541 24.8555 13.7142 24.8555H11.2496C10.253 24.8555 9.50957 23.9375 9.71681 22.9627L13.2235 6.46837C13.3773 5.74469 14.0164 5.22722 14.7562 5.22722H17.2219C18.2182 5.22722 18.9616 6.14479 18.7548 7.11941L18.7232 7.26856C20.0354 5.80298 21.5708 5.07019 23.3292 5.07019C24.6677 5.07019 25.7306 5.43659 26.5179 6.16938C27.3053 6.90217 27.699 8.01444 27.699 9.50619C27.699 10.2651 27.6071 11.1157 27.4234 12.0579C27.2397 12.9739 26.9772 14.0992 26.636 15.4339C26.4261 16.2452 26.2292 17.0435 26.0455 17.8286C25.8881 18.5876 25.8093 19.1895 25.8093 19.6344C25.8093 20.1578 25.9274 20.5635 26.1636 20.8514C26.3998 21.1392 26.8066 21.2832 27.384 21.2832C28.1714 21.2832 28.8013 21.0084 29.2737 20.4588C29.7461 19.883 30.2185 19.0063 30.6909 17.8286H32.3443C31.3733 20.7074 30.2447 22.6441 28.9587 23.6386C27.699 24.6069 26.3867 25.0911 25.022 25.0911Z" fill="#703EFE"/>
<path fill-rule="evenodd" clip-rule="evenodd" d="M33.1339 36.9205C33.9737 37.5748 35.0235 37.9019 36.2833 37.9019C37.9105 37.9019 39.367 37.4178 40.6531 36.4494C41.9391 35.5073 42.8445 33.7669 43.3694 31.2283C43.8601 28.8795 44.2171 27.0582 44.458 25.7851C45.535 25.0992 46.6178 24.287 48.0583 22.9365C48.3443 22.6683 48.095 22.204 47.712 22.2881L44.9791 22.8881C44.4041 18.5699 44.458 14.2009 47.1615 9.91449C46.6599 7.2648 42.6295 4.432 39.7476 4.70086C36.5982 4.99468 34.9579 5.77707 33.4095 7.26882C31.8872 8.7344 30.7325 10.5402 29.9451 12.6862C29.184 14.8061 28.8035 16.8343 28.8035 18.771C28.8035 20.9432 29.3021 22.5396 30.2994 23.5603C31.2967 24.581 32.5434 25.0913 34.0393 25.0913C35.8502 25.0913 37.4249 24.3716 38.7634 22.9322L38.291 25.0128C36.4276 25.6147 34.8923 26.3606 33.685 27.2504C30.9733 29.7731 31.0465 32.0256 31.3403 33.937C31.5469 35.2807 32.294 36.2662 33.1339 36.9205ZM38.4485 20.459C37.8186 21.0086 37.2018 21.2834 36.5982 21.2834C36.0471 21.2834 35.5747 21.1002 35.181 20.7338C34.8136 20.3674 34.6298 19.53 34.6298 18.2214C34.6298 16.9129 34.866 15.408 35.3385 13.7069C35.8109 11.9796 36.467 10.514 37.3068 9.31016C38.1467 8.08012 39.0915 7.4651 40.1413 7.4651C40.6924 7.4651 41.0992 7.63521 41.3617 7.97544C41.6241 8.28949 41.7553 8.60354 41.7553 8.91759L39.7476 18.2214C39.5114 19.1636 39.0784 19.9094 38.4485 20.459ZM37.9661 33.5295C37.3478 34.4204 36.7102 34.8658 36.0533 34.8658C35.435 34.8658 34.952 34.6721 34.6042 34.2848C34.2565 33.8975 34.0826 33.4521 34.0826 32.9485C34.0826 31.0506 35.976 29.4045 39.763 28.0101L39.4152 29.695C39.0674 31.3605 38.5844 32.6387 37.9661 33.5295Z" fill="#703EFE"/>
<path fill-rule="evenodd" clip-rule="evenodd" d="M66.2768 20.0119C64.2284 25.5998 58.559 28.6602 53.6139 26.8474C51.7748 26.1732 50.2948 24.92 49.2667 23.3242C49.8588 22.6362 50.4677 21.9491 51.0822 21.2757C51.3542 20.9776 51.0557 20.5038 50.6707 20.6247L48.2956 21.3704C47.4164 18.9856 47.3716 16.1676 48.3688 13.4473C50.4172 7.85937 56.0866 4.79903 61.0318 6.61181C65.9769 8.42458 68.3252 14.424 66.2768 20.0119ZM63.9162 16.4352C63.3302 19.7201 60.7552 22.0085 58.1648 21.5464C56.8528 21.3124 55.7884 20.4177 55.1335 19.1648L53.3607 19.9275C52.9901 20.0869 52.6613 19.6582 52.919 19.3476C53.4609 18.6945 54.0086 18.072 54.5472 17.4718C54.381 16.6254 54.3673 15.7038 54.5353 14.7619C55.1212 11.477 57.6962 9.18862 60.2867 9.65069C62.8771 10.1128 64.5021 13.1503 63.9162 16.4352Z" fill="#FD5593"/>
<path d="M4.03948 5.33854C4.64312 5.94047 5.37797 6.24144 6.24406 6.24144C7.11014 6.24144 7.845 5.94047 8.44863 5.33854C9.07851 4.7366 9.39345 4.00381 9.39345 3.14017C9.39345 2.27652 9.07851 1.54373 8.44863 0.941795C7.845 0.313687 7.11014 -0.000366211 6.24406 -0.000366211C5.37797 -0.000366211 4.64312 0.313687 4.03948 0.941795C3.43585 1.54373 3.13403 2.27652 3.13403 3.14017C3.13403 4.00381 3.43585 4.7366 4.03948 5.33854Z" fill="#FD5593"/>
</svg>
