<svg width="121" height="68" viewBox="0 0 121 68" fill="none" xmlns="http://www.w3.org/2000/svg">
<path d="M7.63059 44.9007C5.37629 44.9007 3.54467 44.1982 2.13573 42.7932C0.77376 41.3883 0.0927734 39.2808 0.0927734 36.4708C0.0927734 35.3 0.280632 33.778 0.656349 31.9047L4.3383 16.1854C4.63531 14.9174 5.76622 14.0207 7.06853 14.0207H11.4584C13.2637 14.0207 14.5986 15.7018 14.1896 17.4602L10.5189 33.2394C10.3311 33.9419 10.2371 34.6912 10.2371 35.4874C10.2371 36.424 10.4485 37.1031 10.8712 37.5246C11.3408 37.8992 12.0922 38.0866 13.1255 38.0866C14.4874 38.0866 15.7555 37.5246 16.9296 36.4006C18.1037 35.2298 18.9491 33.7311 19.4657 31.9047H22.4244C20.6868 36.9626 18.4559 40.4048 15.732 42.2312C13.008 44.0109 10.3076 44.9007 7.63059 44.9007Z" fill="white"/>
<path d="M44.8689 44.9007C42.0041 44.9007 39.8907 44.1514 38.5287 42.6527C37.2137 41.1073 36.5562 39.2105 36.5562 36.9626C36.5562 35.9791 36.6736 34.8785 36.9084 33.6609C37.1433 32.3964 37.3781 31.1788 37.6129 30.008C37.8947 28.8372 38.0826 28.0878 38.1765 27.76C38.5522 26.1209 38.9044 24.5051 39.2332 22.9128C39.5619 21.3205 39.7263 20.0326 39.7263 19.0492C39.7263 16.6607 38.881 15.4665 37.1902 15.4665C35.9692 15.4665 34.889 16.0753 33.9497 17.2929C33.0104 18.4638 32.2589 20.0092 31.6954 21.9294L27.3769 42.2578C27.1017 43.553 25.9581 44.4792 24.634 44.4792H20.2236C18.4402 44.4792 17.1099 42.8363 17.4807 41.0919L23.7558 11.5759C24.0311 10.2808 25.1747 9.35485 26.4986 9.35485H30.911C32.6938 9.35485 34.024 10.9968 33.6541 12.7409L33.5974 13.0078C35.9457 10.3852 38.6931 9.07385 41.8397 9.07385C44.2349 9.07385 46.137 9.72951 47.5459 11.0408C48.9549 12.3521 49.6593 14.3425 49.6593 17.012C49.6593 18.3701 49.495 19.8921 49.1662 21.5781C48.8375 23.2173 48.3678 25.2311 47.7573 27.6195C47.3816 29.0713 47.0293 30.4997 46.7006 31.9047C46.4188 33.2628 46.2779 34.34 46.2779 35.1361C46.2779 36.0728 46.4892 36.7987 46.9119 37.3138C47.3346 37.829 48.0625 38.0866 49.0958 38.0866C50.5047 38.0866 51.6319 37.5948 52.4772 36.6113C53.3226 35.581 54.1679 34.0121 55.0133 31.9047H57.9721C56.2344 37.0562 54.2149 40.5218 51.9136 42.3015C49.6593 44.0343 47.3111 44.9007 44.8689 44.9007Z" fill="white"/>
<path fill-rule="evenodd" clip-rule="evenodd" d="M59.3848 66.0693C60.8876 67.2401 62.7662 67.8255 65.0205 67.8255C67.9323 67.8255 70.5389 66.9591 72.8401 65.2263C75.1414 63.5404 76.7617 60.426 77.701 55.8833C78.5791 51.6802 79.2179 48.421 79.649 46.1429C81.5762 44.9153 83.5139 43.4621 86.0916 41.0453C86.6034 40.5654 86.1573 39.7346 85.472 39.885L80.5815 40.9588C79.5525 33.2314 79.649 25.4132 84.4869 17.7428C83.5893 13.0012 76.377 7.932 71.2199 8.41312C65.5841 8.9389 62.6488 10.339 59.8779 13.0084C57.154 15.631 55.0875 18.8625 53.6786 22.7027C52.3166 26.4962 51.6356 30.1257 51.6356 33.5913C51.6356 37.4784 52.5279 40.3352 54.3126 42.1616C56.0973 43.9881 58.3281 44.9013 61.0051 44.9013C64.2456 44.9013 67.0635 43.6134 69.4587 41.0376L68.6133 44.7608C65.2788 45.838 62.5314 47.1727 60.371 48.765C55.5185 53.2791 55.6495 57.3101 56.1752 60.7304C56.5449 63.1349 57.8819 64.8985 59.3848 66.0693ZM68.8951 36.612C67.768 37.5955 66.6643 38.0872 65.5841 38.0872C64.5979 38.0872 63.7525 37.7594 63.048 37.1037C62.3905 36.4481 62.0618 34.9494 62.0618 32.6078C62.0618 30.2662 62.4844 27.5733 63.3298 24.5292C64.1752 21.4383 65.3493 18.8156 66.8522 16.6613C68.355 14.4602 70.0457 13.3597 71.9243 13.3597C72.9106 13.3597 73.6385 13.6641 74.1082 14.2729C74.5778 14.8349 74.8127 15.3969 74.8127 15.9589L71.2199 32.6078C70.7972 34.2938 70.0223 35.6285 68.8951 36.612ZM68.0319 60.0013C66.9255 61.5954 65.7846 62.3925 64.609 62.3925C63.5026 62.3925 62.6383 62.0459 62.0159 61.3528C61.3936 60.6597 61.0824 59.8626 61.0824 58.9616C61.0824 55.5654 64.4707 52.6197 71.2474 50.1245L70.625 53.1395C70.0027 56.1199 69.1383 58.4071 68.0319 60.0013Z" fill="white"/>
<path fill-rule="evenodd" clip-rule="evenodd" d="M118.693 35.8117C115.028 45.8111 104.882 51.2875 96.0331 48.0436C92.7421 46.8372 90.0938 44.5946 88.2539 41.739C89.3135 40.5078 90.4031 39.2783 91.5027 38.0732C91.9895 37.5398 91.4553 36.6919 90.7664 36.9082L86.5162 38.2428C84.943 33.9751 84.8628 28.9325 86.6473 24.0645C90.3128 14.0651 100.458 8.58869 109.307 11.8326C118.156 15.0765 122.359 25.8123 118.693 35.8117ZM114.469 29.4113C113.42 35.2896 108.812 39.3845 104.177 38.5577C101.829 38.1389 99.9244 36.5379 98.7525 34.2959L95.5801 35.6606C94.9168 35.946 94.3286 35.1787 94.7897 34.623C95.7594 33.4543 96.7395 32.3403 97.7033 31.2663C97.4059 29.7517 97.3813 28.1025 97.6819 26.4169C98.7305 20.5387 103.338 16.4437 107.974 17.2706C112.609 18.0975 115.517 23.533 114.469 29.4113Z" fill="#FD5593"/>
<path d="M7.32133 9.55431C8.40152 10.6315 9.71652 11.17 11.2664 11.17C12.8162 11.17 14.1312 10.6315 15.2114 9.55431C16.3385 8.47717 16.9021 7.16586 16.9021 5.62039C16.9021 4.07492 16.3385 2.76361 15.2114 1.68646C14.1312 0.562479 12.8162 0.000488281 11.2664 0.000488281C9.71652 0.000488281 8.40152 0.562479 7.32133 1.68646C6.24114 2.76361 5.70105 4.07492 5.70105 5.62039C5.70105 7.16586 6.24114 8.47717 7.32133 9.55431Z" fill="#FD5593"/>
</svg>
