<svg width="375" height="812" viewBox="0 0 375 812" fill="none" xmlns="http://www.w3.org/2000/svg">
<rect width="375" height="812" fill="#703EFE"/>
<path d="M203.789 408.549C203.789 396.721 194.27 399.71 190.021 403.45C184.411 395.801 177.272 400.9 176.762 408.549C176.354 414.669 190.021 422.828 190.021 422.828C190.021 422.828 203.789 415.689 203.789 408.549Z" stroke="#E4E4E4" stroke-opacity="0.15" stroke-width="2.11795"/>
<path d="M80.8908 421.284C80.8908 414.513 75.5044 416.224 73.0998 418.365C69.9256 413.986 65.8859 416.905 65.5974 421.284C65.3665 424.787 73.0998 429.457 73.0998 429.457C73.0998 429.457 80.8908 425.371 80.8908 421.284Z" stroke="#E4E4E4" stroke-opacity="0.15" stroke-width="2.11795"/>
<path d="M311.031 438.089C308.014 432.028 303.954 435.96 302.756 438.948C297.963 436.442 295.647 440.855 297.34 444.904C298.694 448.143 307.699 448.878 307.699 448.878C307.699 448.878 312.852 441.748 311.031 438.089Z" stroke="#E4E4E4" stroke-opacity="0.15" stroke-width="2.11795"/>
<path d="M305.287 294.908C308.245 288.817 302.652 288.003 299.554 288.878C298.611 283.553 293.702 284.414 291.53 288.227C289.792 291.277 294.708 298.857 294.708 298.857C294.708 298.857 303.502 298.584 305.287 294.908Z" stroke="#E4E4E4" stroke-opacity="0.15" stroke-width="2.11795"/>
<path d="M73.8714 278.602C72.7478 274.409 69.6958 276.362 68.5617 278.087C65.8692 275.902 63.8517 278.38 64.3996 281.14C64.838 283.348 70.4026 284.957 70.4026 284.957C70.4026 284.957 74.5496 281.133 73.8714 278.602Z" stroke="#E4E4E4" stroke-opacity="0.15" stroke-width="2.11795"/>
<path d="M270.712 523.378C269.588 519.184 266.536 521.138 265.402 522.863C262.709 520.677 260.692 523.156 261.24 525.916C261.678 528.123 267.243 529.733 267.243 529.733C267.243 529.733 271.39 525.909 270.712 523.378Z" stroke="#E4E4E4" stroke-opacity="0.15" stroke-width="2.11795"/>
<path d="M74.8913 526.437C73.7677 522.244 70.7157 524.197 69.5816 525.922C66.8891 523.737 64.8716 526.215 65.4195 528.975C65.8579 531.183 71.4225 532.792 71.4225 532.792C71.4225 532.792 75.5695 528.968 74.8913 526.437Z" stroke="#E4E4E4" stroke-opacity="0.15" stroke-width="2.11795"/>
<path d="M196.771 320.917C197.895 316.723 194.275 316.889 192.431 317.816C191.191 314.578 188.205 315.715 187.3 318.379C186.575 320.51 190.59 324.686 190.59 324.686C190.59 324.686 196.093 323.448 196.771 320.917Z" stroke="#E4E4E4" stroke-opacity="0.15" stroke-width="2.11795"/>
<path d="M199.405 478.841L192.02 478.102C190.911 477.992 190.096 477.011 190.19 475.9L191.885 455.982C191.981 454.854 192.978 454.02 194.106 454.124L217.542 456.294C218.673 456.399 219.501 457.407 219.383 458.537L217.258 478.942C217.141 480.059 216.144 480.872 215.026 480.76L207.612 480.019C207.12 479.969 206.626 480.101 206.224 480.388L204.798 481.407C203.938 482.021 202.751 481.877 202.064 481.074L200.751 479.543C200.409 479.145 199.927 478.893 199.405 478.841Z" stroke="#E4E4E4" stroke-opacity="0.15" stroke-width="2.11795"/>
<path d="M64.1851 476.217L57.9991 476.52C56.8856 476.574 55.9347 475.725 55.8638 474.612L54.7757 457.541C54.7037 456.411 55.5661 455.438 56.6967 455.375L76.886 454.239C78.0199 454.175 78.9876 455.049 79.0384 456.184L79.8243 473.731C79.8746 474.853 79.0082 475.805 77.8863 475.86L71.6718 476.164C71.1775 476.188 70.7089 476.391 70.3532 476.735L69.472 477.587C68.7124 478.322 67.5175 478.355 66.7186 477.663L65.62 476.712C65.2232 476.369 64.7093 476.191 64.1851 476.217Z" stroke="#E4E4E4" stroke-opacity="0.15" stroke-width="2.11795"/>
<path d="M211.535 364.02L205.349 364.323C204.235 364.377 203.284 363.528 203.213 362.415L202.125 345.344C202.053 344.214 202.916 343.242 204.046 343.178L224.236 342.042C225.37 341.978 226.337 342.853 226.388 343.987L227.174 361.534C227.224 362.657 226.358 363.608 225.236 363.663L219.021 363.967C218.527 363.991 218.059 364.194 217.703 364.538L216.822 365.391C216.062 366.126 214.867 366.159 214.068 365.467L212.97 364.516C212.573 364.172 212.059 363.995 211.535 364.02Z" stroke="#E4E4E4" stroke-opacity="0.15" stroke-width="2.11795"/>
<path d="M137.895 436.667L131.709 436.97C130.595 437.024 129.644 436.175 129.573 435.062L128.485 417.991C128.413 416.861 129.276 415.889 130.406 415.825L150.596 414.689C151.729 414.625 152.697 415.5 152.748 416.634L153.534 434.181C153.584 435.303 152.718 436.255 151.596 436.31L145.381 436.614C144.887 436.638 144.418 436.841 144.063 437.185L143.182 438.038C142.422 438.772 141.227 438.805 140.428 438.114L139.33 437.163C138.933 436.819 138.419 436.642 137.895 436.667Z" stroke="#E4E4E4" stroke-opacity="0.15" stroke-width="2.11795"/>
<path d="M94.7603 394.357L88.7196 392.99C87.6323 392.744 86.9439 391.67 87.1739 390.579L90.7026 373.842C90.9363 372.734 92.0278 372.028 93.1342 372.27L112.889 376.588C113.998 376.831 114.696 377.933 114.441 379.039L110.493 396.155C110.241 397.249 109.151 397.934 108.056 397.686L101.987 396.313C101.504 396.203 100.999 396.273 100.564 396.509L99.4861 397.094C98.5574 397.599 97.3974 397.31 96.8132 396.429L96.0099 395.219C95.7197 394.781 95.2722 394.473 94.7603 394.357Z" stroke="#E4E4E4" stroke-opacity="0.15" stroke-width="2.11795"/>
<path d="M162.82 524.616L156.779 523.249C155.692 523.003 155.003 521.929 155.233 520.839L158.762 504.101C158.995 502.993 160.087 502.287 161.193 502.529L180.948 506.847C182.058 507.09 182.755 508.192 182.5 509.298L178.553 526.414C178.3 527.509 177.21 528.193 176.115 527.945L170.046 526.572C169.564 526.463 169.058 526.532 168.623 526.769L167.545 527.354C166.617 527.858 165.457 527.569 164.872 526.689L164.069 525.478C163.779 525.04 163.331 524.732 162.82 524.616Z" stroke="#E4E4E4" stroke-opacity="0.15" stroke-width="2.11795"/>
<path d="M292.347 383.87L286.306 382.503C285.219 382.257 284.53 381.183 284.76 380.093L288.289 363.355C288.523 362.247 289.614 361.541 290.72 361.783L310.475 366.101C311.585 366.344 312.282 367.446 312.027 368.553L308.08 385.668C307.827 386.763 306.737 387.447 305.642 387.199L299.573 385.826C299.091 385.717 298.585 385.787 298.15 386.023L297.072 386.608C296.144 387.112 294.984 386.823 294.399 385.943L293.596 384.732C293.306 384.294 292.858 383.986 292.347 383.87Z" stroke="#E4E4E4" stroke-opacity="0.15" stroke-width="2.11795"/>
<path d="M138.868 302.178L133.986 302.885C132.882 303.044 131.855 302.289 131.679 301.188L129.447 287.216C129.268 286.098 130.035 285.048 131.155 284.878L147.785 282.347C148.908 282.177 149.954 282.956 150.112 284.08L152.134 298.479C152.29 299.591 151.518 300.62 150.406 300.781L145.495 301.492C145.005 301.562 144.558 301.809 144.237 302.185L143.79 302.707C143.104 303.511 141.917 303.656 141.056 303.043L140.344 302.536C139.916 302.231 139.388 302.103 138.868 302.178Z" stroke="#E4E4E4" stroke-opacity="0.15" stroke-width="2.11795"/>
<path d="M94.9425 465.437L94.7927 465.287C93.9149 464.409 94.0181 462.958 95.0112 462.213L99.6026 458.769C100.525 458.078 101.836 458.287 102.498 459.231L103.728 460.989C104.359 461.89 105.589 462.129 106.511 461.53L113.287 457.125C114.255 456.496 114.509 455.191 113.847 454.245L112.667 452.56C112.018 451.632 112.249 450.352 113.183 449.71L117.971 446.418C118.883 445.791 120.135 446.054 120.718 446.995C123.796 451.969 122.295 458.494 117.352 461.621L108.873 466.985C104.439 469.79 98.6528 469.147 94.9425 465.437Z" stroke="#E4E4E4" stroke-opacity="0.15" stroke-width="2.11795"/>
<path d="M239.768 464.927L239.618 464.777C238.741 463.899 238.844 462.448 239.837 461.703L244.428 458.259C245.35 457.568 246.662 457.777 247.323 458.721L248.554 460.479C249.184 461.38 250.415 461.619 251.337 461.02L258.113 456.615C259.081 455.986 259.334 454.681 258.672 453.735L257.493 452.05C256.843 451.122 257.075 449.842 258.008 449.2L262.796 445.908C263.709 445.281 264.96 445.544 265.543 446.485C268.622 451.459 267.12 457.984 262.177 461.111L253.699 466.475C249.265 469.28 243.478 468.637 239.768 464.927Z" stroke="#E4E4E4" stroke-opacity="0.15" stroke-width="2.11795"/>
<path d="M238.59 418.96L232.773 417.223C229.621 416.282 227.543 413.282 227.769 410C227.823 409.224 228.551 408.675 229.312 408.838L232.072 409.428C233.131 409.655 233.792 410.713 233.531 411.763C233.282 412.765 233.871 413.784 234.864 414.068L238.417 415.081C239.437 415.372 240.495 414.759 240.751 413.73C241.002 412.719 242.029 412.107 243.037 412.367L245.895 413.102C246.555 413.272 246.939 413.959 246.737 414.611C245.674 418.049 242.039 419.99 238.59 418.96Z" stroke="#E4E4E4" stroke-opacity="0.15" stroke-width="2.11795"/>
<path d="M218.804 526.86L212.987 525.123C209.835 524.182 207.756 521.182 207.983 517.9C208.036 517.124 208.765 516.575 209.526 516.738L212.286 517.328C213.344 517.555 214.005 518.613 213.744 519.663C213.495 520.665 214.085 521.684 215.078 521.968L218.631 522.981C219.651 523.272 220.708 522.66 220.964 521.63C221.215 520.619 222.242 520.007 223.251 520.267L226.108 521.002C226.768 521.172 227.152 521.86 226.951 522.511C225.887 525.949 222.253 527.89 218.804 526.86Z" stroke="#E4E4E4" stroke-opacity="0.15" stroke-width="2.11795"/>
<path d="M67.8588 357.557L62.0419 355.82C58.89 354.879 56.8114 351.879 57.0377 348.597C57.0912 347.821 57.8199 347.272 58.5809 347.435L61.3408 348.025C62.3994 348.252 63.0603 349.31 62.7992 350.36C62.5503 351.362 63.1401 352.381 64.1329 352.665L67.6857 353.678C68.7056 353.969 69.7635 353.356 70.0192 352.327C70.2704 351.316 71.2972 350.704 72.3058 350.964L75.1635 351.699C75.8235 351.869 76.2073 352.556 76.006 353.207C74.9425 356.646 71.3077 358.587 67.8588 357.557Z" stroke="#E4E4E4" stroke-opacity="0.15" stroke-width="2.11795"/>
<path d="M224.923 293.303L219.106 291.566C215.954 290.625 213.876 287.625 214.102 284.344C214.156 283.567 214.884 283.018 215.645 283.181L218.405 283.772C219.464 283.998 220.125 285.056 219.864 286.107C219.615 287.109 220.204 288.128 221.197 288.411L224.75 289.424C225.77 289.715 226.828 289.103 227.084 288.074C227.335 287.063 228.362 286.451 229.37 286.71L232.228 287.446C232.888 287.616 233.272 288.303 233.07 288.954C232.007 292.393 228.372 294.333 224.923 293.303Z" stroke="#E4E4E4" stroke-opacity="0.15" stroke-width="2.11795"/>
<path d="M313.654 350.418L307.837 348.681C304.685 347.74 302.607 344.74 302.833 341.458C302.886 340.682 303.615 340.133 304.376 340.295L307.136 340.886C308.195 341.112 308.856 342.17 308.595 343.221C308.346 344.223 308.935 345.242 309.928 345.525L313.481 346.539C314.501 346.83 315.559 346.217 315.815 345.188C316.066 344.177 317.093 343.565 318.101 343.825L320.959 344.56C321.619 344.73 322.003 345.417 321.801 346.068C320.738 349.507 317.103 351.447 313.654 350.418Z" stroke="#E4E4E4" stroke-opacity="0.15" stroke-width="2.11795"/>
<path d="M144.439 346.859L145.506 344.981C146.125 343.893 147.569 343.613 148.549 344.393L154.344 349.001C155.239 349.712 155.375 351.02 154.645 351.899L152.613 354.352C151.917 355.191 152.004 356.428 152.81 357.162L160.265 363.951C161.126 364.735 162.466 364.641 163.209 363.745L165.12 361.439C165.849 360.559 167.159 360.45 168.024 361.198L173.57 365.993C174.444 366.748 174.517 368.078 173.73 368.924L172.894 369.825C168.669 374.37 161.557 374.624 157.021 370.39L146.537 360.606C142.739 357.062 141.871 351.374 144.439 346.859Z" stroke="#E4E4E4" stroke-opacity="0.15" stroke-width="2.11795"/>
<path d="M103.759 490.09C97.8581 479.839 91.0996 487.179 89.2823 492.54C80.6046 488.709 76.9613 496.69 80.3356 503.574C83.035 509.081 98.9499 509.334 98.9499 509.334C98.9499 509.334 107.321 496.278 103.759 490.09Z" stroke="#E4E4E4" stroke-opacity="0.15" stroke-width="2.11795"/>
<path d="M315.032 509.061C318.702 497.816 308.725 497.705 303.525 499.942C300.565 490.93 292.196 493.563 289.338 500.677C287.052 506.368 297.514 518.364 297.514 518.364C297.514 518.364 312.818 515.848 315.032 509.061Z" stroke="#E4E4E4" stroke-opacity="0.15" stroke-width="2.11795"/>
<path d="M274.324 328.35C270.257 317.243 262.346 323.323 259.641 328.295C251.743 323.041 246.793 330.284 248.944 337.643C250.665 343.529 266.304 346.492 266.304 346.492C266.304 346.492 276.778 335.054 274.324 328.35Z" stroke="#E4E4E4" stroke-opacity="0.15" stroke-width="2.11795"/>
<path d="M106.16 332.096C112.852 322.343 103.312 319.422 97.6918 320.101C97.394 310.62 88.6223 310.786 83.8741 316.805C80.0755 321.62 86.7284 336.08 86.7284 336.08C86.7284 336.08 102.121 337.983 106.16 332.096Z" stroke="#E4E4E4" stroke-opacity="0.15" stroke-width="2.11795"/>
<path d="M203.789 134.275C203.789 122.447 194.27 125.436 190.021 129.176C184.411 121.526 177.272 126.626 176.762 134.275C176.354 140.395 190.021 148.554 190.021 148.554C190.021 148.554 203.789 141.414 203.789 134.275Z" stroke="#E4E4E4" stroke-opacity="0.15" stroke-width="2.11795"/>
<path d="M80.8908 147.009C80.8908 140.238 75.5044 141.95 73.0998 144.09C69.9256 139.712 65.8859 142.631 65.5974 147.009C65.3665 150.512 73.0998 155.183 73.0998 155.183C73.0998 155.183 80.8908 151.096 80.8908 147.009Z" stroke="#E4E4E4" stroke-opacity="0.15" stroke-width="2.11795"/>
<path d="M311.031 163.815C308.014 157.753 303.954 161.685 302.756 164.673C297.963 162.168 295.647 166.581 297.34 170.63C298.694 173.869 307.699 174.604 307.699 174.604C307.699 174.604 312.852 167.473 311.031 163.815Z" stroke="#E4E4E4" stroke-opacity="0.15" stroke-width="2.11795"/>
<path d="M305.287 20.6331C308.245 14.5424 302.652 13.7286 299.554 14.6038C298.611 9.27847 293.702 10.1395 291.53 13.9524C289.792 17.0026 294.708 24.5821 294.708 24.5821C294.708 24.5821 303.502 24.3093 305.287 20.6331Z" stroke="#E4E4E4" stroke-opacity="0.15" stroke-width="2.11795"/>
<path d="M73.8714 4.32774C72.7478 0.134218 69.6958 2.08786 68.5617 3.81273C65.8692 1.62763 63.8517 4.10587 64.3996 6.8657C64.838 9.07357 70.4026 10.6828 70.4026 10.6828C70.4026 10.6828 74.5496 6.85883 73.8714 4.32774Z" stroke="#E4E4E4" stroke-opacity="0.15" stroke-width="2.11795"/>
<path d="M270.712 249.103C269.588 244.91 266.536 246.863 265.402 248.588C262.709 246.403 260.692 248.881 261.24 251.641C261.678 253.849 267.243 255.458 267.243 255.458C267.243 255.458 271.39 251.634 270.712 249.103Z" stroke="#E4E4E4" stroke-opacity="0.15" stroke-width="2.11795"/>
<path d="M74.8913 252.163C73.7677 247.969 70.7157 249.923 69.5816 251.648C66.8891 249.463 64.8716 251.941 65.4195 254.701C65.8579 256.909 71.4225 258.518 71.4225 258.518C71.4225 258.518 75.5695 254.694 74.8913 252.163Z" stroke="#E4E4E4" stroke-opacity="0.15" stroke-width="2.11795"/>
<path d="M196.771 46.6426C197.895 42.4491 194.275 42.6149 192.431 43.5417C191.191 40.3031 188.205 41.4406 187.3 44.1046C186.575 46.2359 190.59 50.4118 190.59 50.4118C190.59 50.4118 196.093 49.1737 196.771 46.6426Z" stroke="#E4E4E4" stroke-opacity="0.15" stroke-width="2.11795"/>
<path d="M199.405 204.567L192.02 203.828C190.911 203.717 190.096 202.736 190.19 201.625L191.885 181.708C191.981 180.58 192.978 179.746 194.106 179.85L217.542 182.02C218.673 182.125 219.501 183.133 219.383 184.262L217.258 204.667C217.141 205.784 216.144 206.597 215.026 206.486L207.612 205.744C207.12 205.695 206.626 205.826 206.224 206.114L204.798 207.132C203.938 207.747 202.751 207.602 202.064 206.8L200.751 205.269C200.409 204.87 199.927 204.619 199.405 204.567Z" stroke="#E4E4E4" stroke-opacity="0.15" stroke-width="2.11795"/>
<path d="M64.1851 201.943L57.9991 202.245C56.8856 202.3 55.9347 201.45 55.8638 200.338L54.7757 183.267C54.7037 182.137 55.5661 181.164 56.6967 181.1L76.886 179.964C78.0199 179.9 78.9876 180.775 79.0384 181.909L79.8243 199.457C79.8746 200.579 79.0082 201.53 77.8863 201.585L71.6718 201.889C71.1775 201.914 70.7089 202.117 70.3532 202.461L69.472 203.313C68.7124 204.048 67.5175 204.081 66.7186 203.389L65.62 202.438C65.2232 202.094 64.7093 201.917 64.1851 201.943Z" stroke="#E4E4E4" stroke-opacity="0.15" stroke-width="2.11795"/>
<path d="M211.535 89.7459L205.349 90.0486C204.235 90.103 203.284 89.2535 203.213 88.1409L202.125 71.0701C202.053 69.9399 202.916 68.9674 204.046 68.9037L224.236 67.7674C225.37 67.7036 226.337 68.5782 226.388 69.7127L227.174 87.26C227.224 88.3821 226.358 89.3337 225.236 89.3886L219.021 89.6926C218.527 89.7168 218.059 89.9198 217.703 90.2639L216.822 91.1164C216.062 91.8511 214.867 91.8841 214.068 91.1924L212.97 90.2412C212.573 89.8977 212.059 89.7203 211.535 89.7459Z" stroke="#E4E4E4" stroke-opacity="0.15" stroke-width="2.11795"/>
<path d="M137.895 162.393L131.709 162.695C130.595 162.75 129.644 161.9 129.573 160.788L128.485 143.717C128.413 142.587 129.276 141.614 130.406 141.551L150.596 140.414C151.729 140.351 152.697 141.225 152.748 142.36L153.534 159.907C153.584 161.029 152.718 161.981 151.596 162.035L145.381 162.34C144.887 162.364 144.418 162.567 144.063 162.911L143.182 163.763C142.422 164.498 141.227 164.531 140.428 163.839L139.33 162.888C138.933 162.545 138.419 162.367 137.895 162.393Z" stroke="#E4E4E4" stroke-opacity="0.15" stroke-width="2.11795"/>
<path d="M94.7603 120.082L88.7196 118.715C87.6323 118.469 86.9439 117.396 87.1739 116.305L90.7026 99.5674C90.9363 98.4593 92.0278 97.7536 93.1342 97.9955L112.889 102.314C113.998 102.556 114.696 103.658 114.441 104.765L110.493 121.88C110.241 122.975 109.151 123.659 108.056 123.412L101.987 122.038C101.504 121.929 100.999 121.999 100.564 122.235L99.4861 122.82C98.5574 123.324 97.3974 123.036 96.8132 122.155L96.0099 120.944C95.7197 120.507 95.2722 120.198 94.7603 120.082Z" stroke="#E4E4E4" stroke-opacity="0.15" stroke-width="2.11795"/>
<path d="M162.82 250.341L156.779 248.974C155.692 248.728 155.003 247.655 155.233 246.564L158.762 229.826C158.995 228.718 160.087 228.013 161.193 228.255L180.948 232.573C182.058 232.815 182.755 233.917 182.5 235.024L178.553 252.14C178.3 253.234 177.21 253.919 176.115 253.671L170.046 252.297C169.564 252.188 169.058 252.258 168.623 252.494L167.545 253.079C166.617 253.583 165.457 253.295 164.872 252.414L164.069 251.203C163.779 250.766 163.331 250.457 162.82 250.341Z" stroke="#E4E4E4" stroke-opacity="0.15" stroke-width="2.11795"/>
<path d="M292.347 109.595L286.306 108.228C285.219 107.982 284.53 106.909 284.76 105.818L288.289 89.0806C288.523 87.9725 289.614 87.2668 290.72 87.5086L310.475 91.8269C311.585 92.0695 312.282 93.1715 312.027 94.2781L308.08 111.394C307.827 112.488 306.737 113.173 305.642 112.925L299.573 111.551C299.091 111.442 298.585 111.512 298.15 111.748L297.072 112.333C296.144 112.837 294.984 112.549 294.399 111.668L293.596 110.457C293.306 110.02 292.858 109.711 292.347 109.595Z" stroke="#E4E4E4" stroke-opacity="0.15" stroke-width="2.11795"/>
<path d="M138.868 27.904L133.986 28.6104C132.882 28.77 131.855 28.0142 131.679 26.9134L129.447 12.9418C129.268 11.8235 130.035 10.7738 131.155 10.6034L147.785 8.07296C148.908 7.90212 149.954 8.68119 150.112 9.80584L152.134 24.2043C152.29 25.3166 151.518 26.346 150.406 26.5068L145.495 27.2172C145.005 27.288 144.558 27.5345 144.237 27.9107L143.79 28.4328C143.104 29.2361 141.917 29.382 141.056 28.769L140.344 28.2613C139.916 27.9569 139.388 27.8289 138.868 27.904Z" stroke="#E4E4E4" stroke-opacity="0.15" stroke-width="2.11795"/>
<path d="M94.9425 191.162L94.7927 191.013C93.9149 190.135 94.0181 188.683 95.0112 187.938L99.6026 184.495C100.525 183.803 101.836 184.012 102.498 184.957L103.728 186.715C104.359 187.616 105.589 187.855 106.511 187.255L113.287 182.851C114.255 182.222 114.509 180.916 113.847 179.971L112.667 178.286C112.018 177.358 112.249 176.077 113.183 175.435L117.971 172.144C118.883 171.516 120.135 171.779 120.718 172.721C123.796 177.694 122.295 184.219 117.352 187.346L108.873 192.71C104.439 195.516 98.6528 194.873 94.9425 191.162Z" stroke="#E4E4E4" stroke-opacity="0.15" stroke-width="2.11795"/>
<path d="M239.768 190.652L239.618 190.503C238.741 189.625 238.844 188.173 239.837 187.428L244.428 183.985C245.35 183.293 246.662 183.503 247.323 184.447L248.554 186.205C249.184 187.106 250.415 187.345 251.337 186.746L258.113 182.341C259.081 181.712 259.334 180.406 258.672 179.461L257.493 177.776C256.843 176.848 257.075 175.567 258.008 174.925L262.796 171.634C263.709 171.006 264.96 171.269 265.543 172.211C268.622 177.184 267.12 183.709 262.177 186.836L253.699 192.2C249.265 195.006 243.478 194.363 239.768 190.652Z" stroke="#E4E4E4" stroke-opacity="0.15" stroke-width="2.11795"/>
<path d="M238.59 144.685L232.773 142.949C229.621 142.008 227.543 139.007 227.769 135.726C227.823 134.949 228.551 134.401 229.312 134.563L232.072 135.154C233.131 135.38 233.792 136.438 233.531 137.489C233.282 138.491 233.871 139.51 234.864 139.793L238.417 140.807C239.437 141.097 240.495 140.485 240.751 139.456C241.002 138.445 242.029 137.833 243.037 138.092L245.895 138.828C246.555 138.998 246.939 139.685 246.737 140.336C245.674 143.775 242.039 145.715 238.59 144.685Z" stroke="#E4E4E4" stroke-opacity="0.15" stroke-width="2.11795"/>
<path d="M218.804 252.585L212.987 250.849C209.835 249.908 207.756 246.907 207.983 243.626C208.036 242.849 208.765 242.301 209.526 242.463L212.286 243.054C213.344 243.28 214.005 244.338 213.744 245.389C213.495 246.391 214.085 247.41 215.078 247.693L218.631 248.707C219.651 248.997 220.708 248.385 220.964 247.356C221.215 246.345 222.242 245.733 223.251 245.992L226.108 246.728C226.768 246.898 227.152 247.585 226.951 248.236C225.887 251.675 222.253 253.615 218.804 252.585Z" stroke="#E4E4E4" stroke-opacity="0.15" stroke-width="2.11795"/>
<path d="M67.8588 83.2824L62.0419 81.5456C58.89 80.6045 56.8114 77.6044 57.0377 74.3228C57.0912 73.5465 57.8199 72.9975 58.5809 73.1603L61.3408 73.7507C62.3994 73.9771 63.0603 75.0352 62.7992 76.0859C62.5503 77.0879 63.1401 78.1069 64.1329 78.3901L67.6857 79.4035C68.7056 79.6944 69.7635 79.0821 70.0192 78.0528C70.2704 77.042 71.2972 76.4297 72.3058 76.6894L75.1635 77.425C75.8235 77.5949 76.2073 78.2821 76.006 78.9331C74.9425 82.3718 71.3077 84.3122 67.8588 83.2824Z" stroke="#E4E4E4" stroke-opacity="0.15" stroke-width="2.11795"/>
<path d="M224.923 19.0289L219.106 17.292C215.954 16.3509 213.876 13.3508 214.102 10.0692C214.156 9.29289 214.884 8.74396 215.645 8.90674L218.405 9.49712C219.464 9.72358 220.125 10.7817 219.864 11.8324C219.615 12.8343 220.204 13.8533 221.197 14.1365L224.75 15.1499C225.77 15.4409 226.828 14.8285 227.084 13.7992C227.335 12.7885 228.362 12.1762 229.37 12.4358L232.228 13.1715C232.888 13.3413 233.272 14.0285 233.07 14.6795C232.007 18.1182 228.372 20.0587 224.923 19.0289Z" stroke="#E4E4E4" stroke-opacity="0.15" stroke-width="2.11795"/>
<path d="M313.654 76.1431L307.837 74.4063C304.685 73.4652 302.607 70.4651 302.833 67.1835C302.886 66.4072 303.615 65.8582 304.376 66.021L307.136 66.6114C308.195 66.8379 308.856 67.896 308.595 68.9466C308.346 69.9486 308.935 70.9676 309.928 71.2508L313.481 72.2642C314.501 72.5551 315.559 71.9428 315.815 70.9135C316.066 69.9028 317.093 69.2905 318.101 69.5501L320.959 70.2857C321.619 70.4556 322.003 71.1428 321.801 71.7938C320.738 75.2325 317.103 77.1729 313.654 76.1431Z" stroke="#E4E4E4" stroke-opacity="0.15" stroke-width="2.11795"/>
<path d="M144.439 72.5845L145.506 70.7065C146.125 69.6181 147.569 69.3389 148.549 70.1182L154.344 74.7269C155.239 75.4381 155.375 76.7452 154.645 77.625L152.613 80.0779C151.917 80.9168 152.004 82.154 152.81 82.8876L160.265 89.6767C161.126 90.4604 162.466 90.3663 163.209 89.4702L165.12 87.1649C165.849 86.2847 167.159 86.1758 168.024 86.9234L173.57 91.7182C174.444 92.4737 174.517 93.8035 173.73 94.6498L172.894 95.5503C168.669 100.096 161.557 100.349 157.021 96.1154L146.537 86.3315C142.739 82.7874 141.871 77.1 144.439 72.5845Z" stroke="#E4E4E4" stroke-opacity="0.15" stroke-width="2.11795"/>
<path d="M103.759 215.816C97.8581 205.565 91.0996 212.904 89.2823 218.265C80.6046 214.435 76.9613 222.416 80.3356 229.3C83.035 234.807 98.9499 235.06 98.9499 235.06C98.9499 235.06 107.321 222.003 103.759 215.816Z" stroke="#E4E4E4" stroke-opacity="0.15" stroke-width="2.11795"/>
<path d="M315.032 234.786C318.702 223.541 308.725 223.43 303.525 225.667C300.565 216.655 292.196 219.288 289.338 226.402C287.052 232.093 297.514 244.089 297.514 244.089C297.514 244.089 312.818 241.573 315.032 234.786Z" stroke="#E4E4E4" stroke-opacity="0.15" stroke-width="2.11795"/>
<path d="M274.324 54.0755C270.257 42.9684 262.346 49.0483 259.641 54.021C251.743 48.767 246.793 56.0101 248.944 63.3684C250.665 69.255 266.304 72.2175 266.304 72.2175C266.304 72.2175 276.778 60.7795 274.324 54.0755Z" stroke="#E4E4E4" stroke-opacity="0.15" stroke-width="2.11795"/>
<path d="M106.16 57.8216C112.852 48.0684 103.312 45.1476 97.6918 45.8269C97.394 36.346 88.6223 36.5116 83.8741 42.5304C80.0755 47.3455 86.7284 61.8053 86.7284 61.8053C86.7284 61.8053 102.121 63.7083 106.16 57.8216Z" stroke="#E4E4E4" stroke-opacity="0.15" stroke-width="2.11795"/>
<path d="M203.789 682.824C203.789 670.996 194.27 673.985 190.021 677.724C184.411 670.075 177.272 675.175 176.762 682.824C176.354 688.943 190.021 697.102 190.021 697.102C190.021 697.102 203.789 689.963 203.789 682.824Z" stroke="#E4E4E4" stroke-opacity="0.15" stroke-width="2.11795"/>
<path d="M80.8908 695.558C80.8908 688.787 75.5044 690.498 73.0998 692.639C69.9256 688.26 65.8859 691.179 65.5974 695.558C65.3665 699.061 73.0998 703.732 73.0998 703.732C73.0998 703.732 80.8908 699.645 80.8908 695.558Z" stroke="#E4E4E4" stroke-opacity="0.15" stroke-width="2.11795"/>
<path d="M311.031 712.364C308.014 706.302 303.954 710.234 302.756 713.222C297.963 710.717 295.647 715.13 297.34 719.179C298.694 722.417 307.699 723.152 307.699 723.152C307.699 723.152 312.852 716.022 311.031 712.364Z" stroke="#E4E4E4" stroke-opacity="0.15" stroke-width="2.11795"/>
<path d="M305.287 569.182C308.245 563.091 302.652 562.277 299.554 563.153C298.611 557.827 293.702 558.688 291.53 562.501C289.792 565.551 294.708 573.131 294.708 573.131C294.708 573.131 303.502 572.858 305.287 569.182Z" stroke="#E4E4E4" stroke-opacity="0.15" stroke-width="2.11795"/>
<path d="M73.8714 552.877C72.7478 548.683 69.6958 550.637 68.5617 552.362C65.8692 550.176 63.8517 552.655 64.3996 555.415C64.838 557.622 70.4026 559.232 70.4026 559.232C70.4026 559.232 74.5496 555.408 73.8714 552.877Z" stroke="#E4E4E4" stroke-opacity="0.15" stroke-width="2.11795"/>
<path d="M270.712 797.652C269.588 793.459 266.536 795.412 265.402 797.137C262.709 794.952 260.692 797.43 261.24 800.19C261.678 802.398 267.243 804.007 267.243 804.007C267.243 804.007 271.39 800.183 270.712 797.652Z" stroke="#E4E4E4" stroke-opacity="0.15" stroke-width="2.11795"/>
<path d="M74.8913 800.712C73.7677 796.518 70.7157 798.472 69.5816 800.197C66.8891 798.012 64.8716 800.49 65.4195 803.25C65.8579 805.458 71.4225 807.067 71.4225 807.067C71.4225 807.067 75.5695 803.243 74.8913 800.712Z" stroke="#E4E4E4" stroke-opacity="0.15" stroke-width="2.11795"/>
<path d="M196.771 595.191C197.895 590.998 194.275 591.164 192.431 592.091C191.191 588.852 188.205 589.989 187.3 592.653C186.575 594.785 190.59 598.961 190.59 598.961C190.59 598.961 196.093 597.723 196.771 595.191Z" stroke="#E4E4E4" stroke-opacity="0.15" stroke-width="2.11795"/>
<path d="M199.405 753.115L192.02 752.377C190.911 752.266 190.096 751.285 190.19 750.174L191.885 730.257C191.981 729.128 192.978 728.294 194.106 728.399L217.542 730.569C218.673 730.673 219.501 731.682 219.383 732.811L217.258 753.216C217.141 754.333 216.144 755.146 215.026 755.034L207.612 754.293C207.12 754.244 206.626 754.375 206.224 754.663L204.798 755.681C203.938 756.295 202.751 756.151 202.064 755.349L200.751 753.818C200.409 753.419 199.927 753.168 199.405 753.115Z" stroke="#E4E4E4" stroke-opacity="0.15" stroke-width="2.11795"/>
<path d="M64.1851 750.491L57.9991 750.794C56.8856 750.849 55.9347 749.999 55.8638 748.886L54.7757 731.816C54.7037 730.685 55.5661 729.713 56.6967 729.649L76.886 728.513C78.0199 728.449 78.9876 729.324 79.0384 730.458L79.8243 748.006C79.8746 749.128 79.0082 750.079 77.8863 750.134L71.6718 750.438C71.1775 750.462 70.7089 750.665 70.3532 751.009L69.472 751.862C68.7124 752.597 67.5175 752.63 66.7186 751.938L65.62 750.987C65.2232 750.643 64.7093 750.466 64.1851 750.491Z" stroke="#E4E4E4" stroke-opacity="0.15" stroke-width="2.11795"/>
<path d="M211.535 638.295L205.349 638.597C204.235 638.652 203.284 637.802 203.213 636.69L202.125 619.619C202.053 618.489 202.916 617.516 204.046 617.453L224.236 616.316C225.37 616.252 226.337 617.127 226.388 618.262L227.174 635.809C227.224 636.931 226.358 637.883 225.236 637.937L219.021 638.242C218.527 638.266 218.059 638.469 217.703 638.813L216.822 639.665C216.062 640.4 214.867 640.433 214.068 639.741L212.97 638.79C212.573 638.447 212.059 638.269 211.535 638.295Z" stroke="#E4E4E4" stroke-opacity="0.15" stroke-width="2.11795"/>
<path d="M137.895 710.942L131.709 711.244C130.595 711.299 129.644 710.449 129.573 709.337L128.485 692.266C128.413 691.136 129.276 690.163 130.406 690.1L150.596 688.963C151.729 688.899 152.697 689.774 152.748 690.909L153.534 708.456C153.584 709.578 152.718 710.53 151.596 710.584L145.381 710.888C144.887 710.913 144.418 711.116 144.063 711.46L143.182 712.312C142.422 713.047 141.227 713.08 140.428 712.388L139.33 711.437C138.933 711.093 138.419 710.916 137.895 710.942Z" stroke="#E4E4E4" stroke-opacity="0.15" stroke-width="2.11795"/>
<path d="M94.7603 668.631L88.7196 667.264C87.6323 667.018 86.9439 665.945 87.1739 664.854L90.7026 648.116C90.9363 647.008 92.0278 646.302 93.1342 646.544L112.889 650.863C113.998 651.105 114.696 652.207 114.441 653.314L110.493 670.429C110.241 671.524 109.151 672.208 108.056 671.96L101.987 670.587C101.504 670.478 100.999 670.548 100.564 670.784L99.4861 671.369C98.5574 671.873 97.3974 671.584 96.8132 670.704L96.0099 669.493C95.7197 669.056 95.2722 668.747 94.7603 668.631Z" stroke="#E4E4E4" stroke-opacity="0.15" stroke-width="2.11795"/>
<path d="M162.82 798.89L156.779 797.523C155.692 797.277 155.003 796.204 155.233 795.113L158.762 778.375C158.995 777.267 160.087 776.562 161.193 776.803L180.948 781.122C182.058 781.364 182.755 782.466 182.5 783.573L178.553 800.688C178.3 801.783 177.21 802.467 176.115 802.219L170.046 800.846C169.564 800.737 169.058 800.807 168.623 801.043L167.545 801.628C166.617 802.132 165.457 801.844 164.872 800.963L164.069 799.752C163.779 799.315 163.331 799.006 162.82 798.89Z" stroke="#E4E4E4" stroke-opacity="0.15" stroke-width="2.11795"/>
<path d="M292.347 658.144L286.306 656.777C285.219 656.531 284.53 655.458 284.76 654.367L288.289 637.629C288.523 636.521 289.614 635.816 290.72 636.058L310.475 640.376C311.585 640.618 312.282 641.72 312.027 642.827L308.08 659.943C307.827 661.037 306.737 661.722 305.642 661.474L299.573 660.1C299.091 659.991 298.585 660.061 298.15 660.297L297.072 660.882C296.144 661.386 294.984 661.098 294.399 660.217L293.596 659.006C293.306 658.569 292.858 658.26 292.347 658.144Z" stroke="#E4E4E4" stroke-opacity="0.15" stroke-width="2.11795"/>
<path d="M138.868 576.453L133.986 577.159C132.882 577.319 131.855 576.563 131.679 575.462L129.447 561.491C129.268 560.372 130.035 559.323 131.155 559.152L147.785 556.622C148.908 556.451 149.954 557.23 150.112 558.355L152.134 572.753C152.29 573.866 151.518 574.895 150.406 575.056L145.495 575.766C145.005 575.837 144.558 576.083 144.237 576.46L143.79 576.982C143.104 577.785 141.917 577.931 141.056 577.318L140.344 576.81C139.916 576.506 139.388 576.378 138.868 576.453Z" stroke="#E4E4E4" stroke-opacity="0.15" stroke-width="2.11795"/>
<path d="M94.9425 739.711L94.7927 739.561C93.9149 738.684 94.0181 737.232 95.0112 736.487L99.6026 733.044C100.525 732.352 101.836 732.561 102.498 733.506L103.728 735.264C104.359 736.164 105.589 736.403 106.511 735.804L113.287 731.4C114.255 730.771 114.509 729.465 113.847 728.52L112.667 726.835C112.018 725.906 112.249 724.626 113.183 723.984L117.971 720.693C118.883 720.065 120.135 720.328 120.718 721.27C123.796 726.243 122.295 732.768 117.352 735.895L108.873 741.259C104.439 744.064 98.6528 743.421 94.9425 739.711Z" stroke="#E4E4E4" stroke-opacity="0.15" stroke-width="2.11795"/>
<path d="M239.768 739.201L239.618 739.051C238.741 738.174 238.844 736.722 239.837 735.977L244.428 732.534C245.35 731.842 246.662 732.051 247.323 732.996L248.554 734.754C249.184 735.654 250.415 735.893 251.337 735.294L258.113 730.89C259.081 730.261 259.334 728.955 258.672 728.01L257.493 726.325C256.843 725.396 257.075 724.116 258.008 723.474L262.796 720.183C263.709 719.555 264.96 719.818 265.543 720.76C268.622 725.733 267.12 732.258 262.177 735.385L253.699 740.749C249.265 743.554 243.478 742.912 239.768 739.201Z" stroke="#E4E4E4" stroke-opacity="0.15" stroke-width="2.11795"/>
<path d="M238.59 693.234L232.773 691.497C229.621 690.556 227.543 687.556 227.769 684.275C227.823 683.498 228.551 682.949 229.312 683.112L232.072 683.703C233.131 683.929 233.792 684.987 233.531 686.038C233.282 687.04 233.871 688.059 234.864 688.342L238.417 689.355C239.437 689.646 240.495 689.034 240.751 688.005C241.002 686.994 242.029 686.382 243.037 686.641L245.895 687.377C246.555 687.547 246.939 688.234 246.737 688.885C245.674 692.324 242.039 694.264 238.59 693.234Z" stroke="#E4E4E4" stroke-opacity="0.15" stroke-width="2.11795"/>
<path d="M218.804 801.134L212.987 799.397C209.835 798.456 207.756 795.456 207.983 792.175C208.036 791.398 208.765 790.849 209.526 791.012L212.286 791.603C213.344 791.829 214.005 792.887 213.744 793.938C213.495 794.94 214.085 795.959 215.078 796.242L218.631 797.255C219.651 797.546 220.708 796.934 220.964 795.905C221.215 794.894 222.242 794.282 223.251 794.541L226.108 795.277C226.768 795.447 227.152 796.134 226.951 796.785C225.887 800.224 222.253 802.164 218.804 801.134Z" stroke="#E4E4E4" stroke-opacity="0.15" stroke-width="2.11795"/>
<path d="M67.8588 631.831L62.0419 630.094C58.89 629.153 56.8114 626.153 57.0377 622.872C57.0912 622.095 57.8199 621.546 58.5809 621.709L61.3408 622.3C62.3994 622.526 63.0603 623.584 62.7992 624.635C62.5503 625.637 63.1401 626.656 64.1329 626.939L67.6857 627.952C68.7056 628.243 69.7635 627.631 70.0192 626.602C70.2704 625.591 71.2972 624.979 72.3058 625.238L75.1635 625.974C75.8235 626.144 76.2073 626.831 76.006 627.482C74.9425 630.921 71.3077 632.861 67.8588 631.831Z" stroke="#E4E4E4" stroke-opacity="0.15" stroke-width="2.11795"/>
<path d="M224.923 567.578L219.106 565.841C215.954 564.9 213.876 561.9 214.102 558.618C214.156 557.842 214.884 557.293 215.645 557.456L218.405 558.046C219.464 558.272 220.125 559.331 219.864 560.381C219.615 561.383 220.204 562.402 221.197 562.685L224.75 563.699C225.77 563.99 226.828 563.377 227.084 562.348C227.335 561.337 228.362 560.725 229.37 560.985L232.228 561.72C232.888 561.89 233.272 562.577 233.07 563.228C232.007 566.667 228.372 568.608 224.923 567.578Z" stroke="#E4E4E4" stroke-opacity="0.15" stroke-width="2.11795"/>
<path d="M313.654 624.692L307.837 622.955C304.685 622.014 302.607 619.014 302.833 615.732C302.886 614.956 303.615 614.407 304.376 614.57L307.136 615.16C308.195 615.387 308.856 616.445 308.595 617.495C308.346 618.497 308.935 619.516 309.928 619.8L313.481 620.813C314.501 621.104 315.559 620.492 315.815 619.462C316.066 618.452 317.093 617.839 318.101 618.099L320.959 618.835C321.619 619.004 322.003 619.692 321.801 620.343C320.738 623.781 317.103 625.722 313.654 624.692Z" stroke="#E4E4E4" stroke-opacity="0.15" stroke-width="2.11795"/>
<path d="M144.439 621.133L145.506 619.255C146.125 618.167 147.569 617.888 148.549 618.667L154.344 623.276C155.239 623.987 155.375 625.294 154.645 626.174L152.613 628.627C151.917 629.466 152.004 630.703 152.81 631.436L160.265 638.226C161.126 639.009 162.466 638.915 163.209 638.019L165.12 635.714C165.849 634.834 167.159 634.725 168.024 635.472L173.57 640.267C174.444 641.023 174.517 642.352 173.73 643.199L172.894 644.099C168.669 648.645 161.557 648.898 157.021 644.664L146.537 634.88C142.739 631.336 141.871 625.649 144.439 621.133Z" stroke="#E4E4E4" stroke-opacity="0.15" stroke-width="2.11795"/>
<path d="M103.759 764.365C97.8581 754.113 91.0996 761.453 89.2823 766.814C80.6046 762.984 76.9613 770.965 80.3356 777.848C83.035 783.355 98.9499 783.608 98.9499 783.608C98.9499 783.608 107.321 770.552 103.759 764.365Z" stroke="#E4E4E4" stroke-opacity="0.15" stroke-width="2.11795"/>
<path d="M315.032 783.335C318.702 772.09 308.725 771.979 303.525 774.216C300.565 765.204 292.196 767.837 289.338 774.951C287.052 780.642 297.514 792.638 297.514 792.638C297.514 792.638 312.818 790.122 315.032 783.335Z" stroke="#E4E4E4" stroke-opacity="0.15" stroke-width="2.11795"/>
<path d="M274.324 602.624C270.257 591.517 262.346 597.597 259.641 602.57C251.743 597.316 246.793 604.559 248.944 611.917C250.665 617.804 266.304 620.766 266.304 620.766C266.304 620.766 276.778 609.328 274.324 602.624Z" stroke="#E4E4E4" stroke-opacity="0.15" stroke-width="2.11795"/>
<path d="M106.16 606.37C112.852 596.617 103.312 593.696 97.6918 594.376C97.394 584.895 88.6223 585.06 83.8741 591.079C80.0755 595.894 86.7284 610.354 86.7284 610.354C86.7284 610.354 102.121 612.257 106.16 606.37Z" stroke="#E4E4E4" stroke-opacity="0.15" stroke-width="2.11795"/>
<path d="M35.698 438.089C32.6808 432.028 28.6213 435.96 27.4225 438.948C22.6298 436.442 20.3141 440.855 22.007 444.904C23.3613 448.143 32.3656 448.878 32.3656 448.878C32.3656 448.878 37.5192 441.748 35.698 438.089Z" stroke="#E4E4E4" stroke-opacity="0.15" stroke-width="2.11795"/>
<path d="M29.954 294.908C32.9118 288.817 27.3191 288.003 24.2209 288.878C23.2784 283.553 18.3694 284.414 16.197 288.227C14.4591 291.277 19.3752 298.857 19.3752 298.857C19.3752 298.857 28.1687 298.584 29.954 294.908Z" stroke="#E4E4E4" stroke-opacity="0.15" stroke-width="2.11795"/>
<path d="M17.0136 383.87L10.9729 382.503C9.8856 382.257 9.19723 381.183 9.42721 380.093L12.9559 363.355C13.1895 362.247 14.2811 361.541 15.3875 361.783L35.1422 366.101C36.2517 366.344 36.9494 367.446 36.6942 368.553L32.7467 385.668C32.4943 386.763 31.4045 387.447 30.3089 387.199L24.2404 385.826C23.7578 385.717 23.2519 385.787 22.817 386.023L21.7394 386.608C20.8107 387.112 19.6507 386.823 19.0665 385.943L18.2632 384.732C17.973 384.294 17.5255 383.986 17.0136 383.87Z" stroke="#E4E4E4" stroke-opacity="0.15" stroke-width="2.11795"/>
<path d="M38.321 350.418L32.5042 348.681C29.3523 347.74 27.2737 344.74 27.4999 341.458C27.5535 340.682 28.2822 340.133 29.0431 340.295L31.803 340.886C32.8617 341.112 33.5225 342.17 33.2615 343.221C33.0126 344.223 33.6024 345.242 34.5952 345.525L38.148 346.539C39.1679 346.83 40.2258 346.217 40.4815 345.188C40.7326 344.177 41.7595 343.565 42.7681 343.825L45.6258 344.56C46.2857 344.73 46.6696 345.417 46.4683 346.068C45.4048 349.507 41.77 351.447 38.321 350.418Z" stroke="#E4E4E4" stroke-opacity="0.15" stroke-width="2.11795"/>
<path d="M39.6994 509.061C43.3685 497.816 33.3918 497.705 28.1918 499.942C25.2317 490.93 16.863 493.563 14.0053 500.677C11.7192 506.368 22.1807 518.364 22.1807 518.364C22.1807 518.364 37.4848 515.848 39.6994 509.061Z" stroke="#E4E4E4" stroke-opacity="0.15" stroke-width="2.11795"/>
<path d="M35.698 163.815C32.6808 157.753 28.6213 161.685 27.4225 164.673C22.6298 162.168 20.3141 166.581 22.007 170.63C23.3613 173.869 32.3656 174.604 32.3656 174.604C32.3656 174.604 37.5192 167.473 35.698 163.815Z" stroke="#E4E4E4" stroke-opacity="0.15" stroke-width="2.11795"/>
<path d="M29.954 20.6331C32.9118 14.5424 27.3191 13.7286 24.2209 14.6038C23.2784 9.27847 18.3694 10.1395 16.197 13.9524C14.4591 17.0026 19.3752 24.5821 19.3752 24.5821C19.3752 24.5821 28.1687 24.3093 29.954 20.6331Z" stroke="#E4E4E4" stroke-opacity="0.15" stroke-width="2.11795"/>
<path d="M17.0136 109.595L10.9729 108.228C9.8856 107.982 9.19723 106.909 9.42721 105.818L12.9559 89.0806C13.1895 87.9725 14.2811 87.2668 15.3875 87.5086L35.1422 91.8269C36.2517 92.0695 36.9494 93.1715 36.6942 94.2781L32.7467 111.394C32.4943 112.488 31.4045 113.173 30.3089 112.925L24.2404 111.551C23.7578 111.442 23.2519 111.512 22.817 111.748L21.7394 112.333C20.8107 112.837 19.6507 112.549 19.0665 111.668L18.2632 110.457C17.973 110.02 17.5255 109.711 17.0136 109.595Z" stroke="#E4E4E4" stroke-opacity="0.15" stroke-width="2.11795"/>
<path d="M38.321 76.1431L32.5042 74.4063C29.3523 73.4652 27.2737 70.4651 27.4999 67.1835C27.5535 66.4072 28.2822 65.8582 29.0431 66.021L31.803 66.6114C32.8617 66.8379 33.5225 67.896 33.2615 68.9466C33.0126 69.9486 33.6024 70.9676 34.5952 71.2508L38.148 72.2642C39.1679 72.5551 40.2258 71.9428 40.4815 70.9135C40.7326 69.9028 41.7595 69.2905 42.7681 69.5501L45.6258 70.2857C46.2857 70.4556 46.6696 71.1428 46.4683 71.7938C45.4048 75.2325 41.77 77.1729 38.321 76.1431Z" stroke="#E4E4E4" stroke-opacity="0.15" stroke-width="2.11795"/>
<path d="M39.6994 234.786C43.3685 223.541 33.3918 223.43 28.1918 225.667C25.2317 216.655 16.863 219.288 14.0053 226.402C11.7192 232.093 22.1807 244.089 22.1807 244.089C22.1807 244.089 37.4848 241.573 39.6994 234.786Z" stroke="#E4E4E4" stroke-opacity="0.15" stroke-width="2.11795"/>
<path d="M35.698 712.364C32.6808 706.302 28.6213 710.234 27.4225 713.222C22.6298 710.717 20.3141 715.13 22.007 719.179C23.3613 722.417 32.3656 723.152 32.3656 723.152C32.3656 723.152 37.5192 716.022 35.698 712.364Z" stroke="#E4E4E4" stroke-opacity="0.15" stroke-width="2.11795"/>
<path d="M29.954 569.182C32.9118 563.091 27.3191 562.277 24.2209 563.153C23.2784 557.827 18.3694 558.688 16.197 562.501C14.4591 565.551 19.3752 573.131 19.3752 573.131C19.3752 573.131 28.1687 572.858 29.954 569.182Z" stroke="#E4E4E4" stroke-opacity="0.15" stroke-width="2.11795"/>
<path d="M17.0136 658.144L10.9729 656.777C9.8856 656.531 9.19723 655.458 9.42721 654.367L12.9559 637.629C13.1895 636.521 14.2811 635.816 15.3875 636.058L35.1422 640.376C36.2517 640.618 36.9494 641.72 36.6942 642.827L32.7467 659.943C32.4943 661.037 31.4045 661.722 30.3089 661.474L24.2404 660.1C23.7578 659.991 23.2519 660.061 22.817 660.297L21.7394 660.882C20.8107 661.386 19.6507 661.098 19.0665 660.217L18.2632 659.006C17.973 658.569 17.5255 658.26 17.0136 658.144Z" stroke="#E4E4E4" stroke-opacity="0.15" stroke-width="2.11795"/>
<path d="M38.321 624.692L32.5042 622.955C29.3523 622.014 27.2737 619.014 27.4999 615.732C27.5535 614.956 28.2822 614.407 29.0431 614.57L31.803 615.16C32.8617 615.387 33.5225 616.445 33.2615 617.495C33.0126 618.497 33.6024 619.516 34.5952 619.8L38.148 620.813C39.1679 621.104 40.2258 620.492 40.4815 619.462C40.7326 618.452 41.7595 617.839 42.7681 618.099L45.6258 618.835C46.2857 619.004 46.6696 619.692 46.4683 620.343C45.4048 623.781 41.77 625.722 38.321 624.692Z" stroke="#E4E4E4" stroke-opacity="0.15" stroke-width="2.11795"/>
<path d="M39.6994 783.335C43.3685 772.09 33.3918 771.979 28.1918 774.216C25.2317 765.204 16.863 767.837 14.0053 774.951C11.7192 780.642 22.1807 792.638 22.1807 792.638C22.1807 792.638 37.4848 790.122 39.6994 783.335Z" stroke="#E4E4E4" stroke-opacity="0.15" stroke-width="2.11795"/>
<path d="M356.225 421.284C356.225 414.513 350.838 416.224 348.434 418.365C345.26 413.986 341.22 416.905 340.931 421.284C340.7 424.787 348.434 429.457 348.434 429.457C348.434 429.457 356.225 425.371 356.225 421.284Z" stroke="#E4E4E4" stroke-opacity="0.15" stroke-width="2.11795"/>
<path d="M349.205 278.602C348.082 274.409 345.03 276.362 343.896 278.087C341.203 275.902 339.186 278.38 339.734 281.14C340.172 283.348 345.737 284.957 345.737 284.957C345.737 284.957 349.884 281.133 349.205 278.602Z" stroke="#E4E4E4" stroke-opacity="0.15" stroke-width="2.11795"/>
<path d="M350.225 526.437C349.102 522.244 346.05 524.197 344.916 525.922C342.223 523.737 340.206 526.215 340.754 528.975C341.192 531.183 346.756 532.792 346.756 532.792C346.756 532.792 350.904 528.968 350.225 526.437Z" stroke="#E4E4E4" stroke-opacity="0.15" stroke-width="2.11795"/>
<path d="M339.519 476.217L333.333 476.52C332.22 476.574 331.269 475.725 331.198 474.612L330.11 457.541C330.038 456.411 330.9 455.438 332.031 455.375L352.22 454.239C353.354 454.175 354.322 455.049 354.372 456.184L355.158 473.731C355.209 474.853 354.342 475.805 353.22 475.86L347.006 476.164C346.511 476.188 346.043 476.391 345.687 476.735L344.806 477.587C344.046 478.322 342.851 478.355 342.053 477.663L340.954 476.712C340.557 476.369 340.043 476.191 339.519 476.217Z" stroke="#E4E4E4" stroke-opacity="0.15" stroke-width="2.11795"/>
<path d="M343.193 357.557L337.376 355.82C334.224 354.879 332.146 351.879 332.372 348.597C332.425 347.821 333.154 347.272 333.915 347.435L336.675 348.025C337.734 348.252 338.394 349.31 338.133 350.36C337.884 351.362 338.474 352.381 339.467 352.665L343.02 353.678C344.04 353.969 345.098 353.356 345.353 352.327C345.604 351.316 346.631 350.704 347.64 350.964L350.498 351.699C351.158 351.869 351.541 352.556 351.34 353.207C350.277 356.646 346.642 358.587 343.193 357.557Z" stroke="#E4E4E4" stroke-opacity="0.15" stroke-width="2.11795"/>
<path d="M356.225 147.009C356.225 140.238 350.838 141.95 348.434 144.09C345.26 139.712 341.22 142.631 340.931 147.009C340.7 150.512 348.434 155.183 348.434 155.183C348.434 155.183 356.225 151.096 356.225 147.009Z" stroke="#E4E4E4" stroke-opacity="0.15" stroke-width="2.11795"/>
<path d="M349.205 4.32774C348.082 0.134218 345.03 2.08786 343.896 3.81273C341.203 1.62763 339.186 4.10587 339.734 6.8657C340.172 9.07357 345.737 10.6828 345.737 10.6828C345.737 10.6828 349.884 6.85883 349.205 4.32774Z" stroke="#E4E4E4" stroke-opacity="0.15" stroke-width="2.11795"/>
<path d="M350.225 252.163C349.102 247.969 346.05 249.923 344.916 251.648C342.223 249.463 340.206 251.941 340.754 254.701C341.192 256.909 346.756 258.518 346.756 258.518C346.756 258.518 350.904 254.694 350.225 252.163Z" stroke="#E4E4E4" stroke-opacity="0.15" stroke-width="2.11795"/>
<path d="M339.519 201.943L333.333 202.245C332.22 202.3 331.269 201.45 331.198 200.338L330.11 183.267C330.038 182.137 330.9 181.164 332.031 181.1L352.22 179.964C353.354 179.9 354.322 180.775 354.372 181.909L355.158 199.457C355.209 200.579 354.342 201.53 353.22 201.585L347.006 201.889C346.511 201.914 346.043 202.117 345.687 202.461L344.806 203.313C344.046 204.048 342.851 204.081 342.053 203.389L340.954 202.438C340.557 202.094 340.043 201.917 339.519 201.943Z" stroke="#E4E4E4" stroke-opacity="0.15" stroke-width="2.11795"/>
<path d="M343.193 83.2824L337.376 81.5456C334.224 80.6045 332.146 77.6044 332.372 74.3228C332.425 73.5465 333.154 72.9975 333.915 73.1603L336.675 73.7507C337.734 73.9771 338.394 75.0352 338.133 76.0859C337.884 77.0879 338.474 78.1069 339.467 78.3901L343.02 79.4035C344.04 79.6944 345.098 79.0821 345.353 78.0528C345.604 77.042 346.631 76.4297 347.64 76.6894L350.498 77.425C351.158 77.5949 351.541 78.2821 351.34 78.9331C350.277 82.3718 346.642 84.3122 343.193 83.2824Z" stroke="#E4E4E4" stroke-opacity="0.15" stroke-width="2.11795"/>
<path d="M356.224 695.558C356.224 688.787 350.837 690.498 348.433 692.639C345.259 688.26 341.219 691.179 340.93 695.558C340.7 699.061 348.433 703.732 348.433 703.732C348.433 703.732 356.224 699.645 356.224 695.558Z" stroke="#E4E4E4" stroke-opacity="0.15" stroke-width="2.11795"/>
<path d="M349.204 552.877C348.081 548.683 345.029 550.637 343.895 552.362C341.202 550.176 339.185 552.655 339.733 555.415C340.171 557.622 345.736 559.232 345.736 559.232C345.736 559.232 349.883 555.408 349.204 552.877Z" stroke="#E4E4E4" stroke-opacity="0.15" stroke-width="2.11795"/>
<path d="M350.224 800.712C349.101 796.518 346.049 798.472 344.915 800.197C342.222 798.012 340.205 800.49 340.753 803.25C341.191 805.458 346.755 807.067 346.755 807.067C346.755 807.067 350.903 803.243 350.224 800.712Z" stroke="#E4E4E4" stroke-opacity="0.15" stroke-width="2.11795"/>
<path d="M339.518 750.491L333.332 750.794C332.219 750.849 331.268 749.999 331.197 748.886L330.109 731.816C330.037 730.685 330.899 729.713 332.03 729.649L352.219 728.513C353.353 728.449 354.321 729.324 354.371 730.458L355.157 748.006C355.208 749.128 354.341 750.079 353.219 750.134L347.005 750.438C346.511 750.462 346.042 750.665 345.686 751.009L344.805 751.862C344.045 752.597 342.85 752.63 342.052 751.938L340.953 750.987C340.556 750.643 340.042 750.466 339.518 750.491Z" stroke="#E4E4E4" stroke-opacity="0.15" stroke-width="2.11795"/>
<path d="M343.192 631.831L337.375 630.094C334.223 629.153 332.145 626.153 332.371 622.872C332.424 622.095 333.153 621.546 333.914 621.709L336.674 622.3C337.733 622.526 338.393 623.584 338.132 624.635C337.883 625.637 338.473 626.656 339.466 626.939L343.019 627.952C344.039 628.243 345.097 627.631 345.352 626.602C345.603 625.591 346.63 624.979 347.639 625.238L350.497 625.974C351.157 626.144 351.54 626.831 351.339 627.482C350.276 630.921 346.641 632.861 343.192 631.831Z" stroke="#E4E4E4" stroke-opacity="0.15" stroke-width="2.11795"/>
</svg>
