<svg width="375" height="502" viewBox="0 0 375 502" fill="none" xmlns="http://www.w3.org/2000/svg">
<g clip-path="url(#clip0_4612_54547)">
<path d="M203.79 413.549C203.79 401.721 194.27 404.71 190.021 408.45C184.411 400.801 177.272 405.9 176.762 413.549C176.354 419.669 190.021 427.828 190.021 427.828C190.021 427.828 203.79 420.689 203.79 413.549Z" stroke="#10DCB6" stroke-width="2.11795"/>
<path d="M80.8909 426.284C80.8909 419.513 75.5045 421.224 73.0999 423.365C69.9257 418.986 65.886 421.905 65.5975 426.284C65.3666 429.787 73.0999 434.457 73.0999 434.457C73.0999 434.457 80.8909 430.371 80.8909 426.284Z" stroke="#10DCB6" stroke-width="2.11795"/>
<path d="M311.031 443.089C308.014 437.028 303.954 440.96 302.755 443.948C297.963 441.442 295.647 445.855 297.34 449.904C298.694 453.143 307.699 453.878 307.699 453.878C307.699 453.878 312.852 446.748 311.031 443.089Z" stroke="#10DCB6" stroke-width="2.11795"/>
<path d="M305.287 299.908C308.245 293.817 302.652 293.003 299.554 293.878C298.611 288.553 293.702 289.414 291.53 293.227C289.792 296.277 294.708 303.857 294.708 303.857C294.708 303.857 303.502 303.584 305.287 299.908Z" stroke="#10DCB6" stroke-width="2.11795"/>
<path d="M73.8714 283.602C72.7478 279.409 69.6958 281.362 68.5617 283.087C65.8692 280.902 63.8517 283.38 64.3996 286.14C64.838 288.348 70.4026 289.957 70.4026 289.957C70.4026 289.957 74.5496 286.133 73.8714 283.602Z" stroke="#10DCB6" stroke-width="2.11795"/>
<path d="M196.772 325.917C197.895 321.723 194.275 321.889 192.431 322.816C191.191 319.578 188.205 320.715 187.3 323.379C186.575 325.51 190.59 329.686 190.59 329.686C190.59 329.686 196.093 328.448 196.772 325.917Z" stroke="#10DCB6" stroke-width="2.11795"/>
<path d="M199.405 483.841L192.02 483.102C190.911 482.991 190.096 482.011 190.19 480.9L191.885 460.982C191.981 459.854 192.978 459.02 194.106 459.124L217.542 461.294C218.673 461.399 219.501 462.407 219.383 463.537L217.258 483.942C217.141 485.059 216.144 485.872 215.026 485.76L207.612 485.019C207.12 484.969 206.626 485.101 206.224 485.388L204.798 486.407C203.938 487.021 202.751 486.877 202.064 486.074L200.751 484.543C200.409 484.145 199.927 483.893 199.405 483.841Z" stroke="#10DCB6" stroke-width="2.11795"/>
<path d="M64.1852 481.217L57.9992 481.52C56.8857 481.574 55.9347 480.725 55.8638 479.612L54.7758 462.541C54.7037 461.411 55.5661 460.438 56.6968 460.375L76.8861 459.239C78.02 459.175 78.9876 460.049 79.0384 461.184L79.8244 478.731C79.8747 479.853 79.0082 480.805 77.8863 480.86L71.6718 481.164C71.1776 481.188 70.709 481.391 70.3533 481.735L69.472 482.587C68.7125 483.322 67.5175 483.355 66.7186 482.663L65.6201 481.712C65.2233 481.369 64.7094 481.191 64.1852 481.217Z" stroke="#10DCB6" stroke-width="2.11795"/>
<path d="M211.535 369.02L205.349 369.323C204.235 369.377 203.284 368.528 203.213 367.415L202.125 350.344C202.053 349.214 202.916 348.242 204.046 348.178L224.236 347.042C225.37 346.978 226.337 347.853 226.388 348.987L227.174 366.534C227.224 367.657 226.358 368.608 225.236 368.663L219.021 368.967C218.527 368.991 218.059 369.194 217.703 369.538L216.822 370.391C216.062 371.126 214.867 371.159 214.068 370.467L212.97 369.516C212.573 369.172 212.059 368.995 211.535 369.02Z" stroke="#10DCB6" stroke-width="2.11795"/>
<path d="M137.895 441.667L131.709 441.97C130.595 442.024 129.644 441.175 129.573 440.062L128.485 422.991C128.413 421.861 129.276 420.889 130.406 420.825L150.596 419.689C151.73 419.625 152.697 420.499 152.748 421.634L153.534 439.181C153.584 440.303 152.718 441.255 151.596 441.31L145.381 441.614C144.887 441.638 144.419 441.841 144.063 442.185L143.182 443.038C142.422 443.772 141.227 443.805 140.428 443.114L139.33 442.163C138.933 441.819 138.419 441.642 137.895 441.667Z" stroke="#10DCB6" stroke-width="2.11795"/>
<path d="M94.7603 399.357L88.7196 397.99C87.6323 397.744 86.9439 396.67 87.1739 395.579L90.7026 378.842C90.9363 377.734 92.0278 377.028 93.1342 377.27L112.889 381.588C113.998 381.831 114.696 382.933 114.441 384.039L110.493 401.155C110.241 402.249 109.151 402.934 108.056 402.686L101.987 401.313C101.504 401.203 100.999 401.273 100.564 401.509L99.4861 402.094C98.5574 402.599 97.3974 402.31 96.8132 401.429L96.0099 400.219C95.7197 399.781 95.2722 399.473 94.7603 399.357Z" stroke="#10DCB6" stroke-width="2.11795"/>
<path d="M292.347 388.87L286.306 387.503C285.219 387.257 284.53 386.183 284.76 385.093L288.289 368.355C288.523 367.247 289.614 366.541 290.72 366.783L310.475 371.101C311.585 371.344 312.282 372.446 312.027 373.553L308.08 390.668C307.827 391.763 306.737 392.447 305.642 392.199L299.573 390.826C299.091 390.717 298.585 390.787 298.15 391.023L297.072 391.608C296.144 392.112 294.984 391.823 294.399 390.943L293.596 389.732C293.306 389.294 292.858 388.986 292.347 388.87Z" stroke="#10DCB6" stroke-width="2.11795"/>
<path d="M138.868 307.178L133.986 307.885C132.882 308.044 131.855 307.289 131.679 306.188L129.447 292.216C129.268 291.098 130.035 290.048 131.155 289.878L147.785 287.347C148.908 287.177 149.954 287.956 150.112 289.08L152.134 303.479C152.29 304.591 151.518 305.62 150.406 305.781L145.495 306.492C145.005 306.562 144.558 306.809 144.237 307.185L143.79 307.707C143.104 308.511 141.917 308.656 141.056 308.043L140.344 307.536C139.916 307.231 139.388 307.103 138.868 307.178Z" stroke="#10DCB6" stroke-width="2.11795"/>
<path d="M94.9425 470.437L94.7927 470.287C93.9149 469.409 94.0181 467.957 95.0112 467.213L99.6026 463.769C100.525 463.077 101.836 463.287 102.498 464.231L103.728 465.989C104.359 466.89 105.589 467.129 106.511 466.53L113.287 462.125C114.255 461.496 114.509 460.191 113.847 459.245L112.667 457.56C112.018 456.632 112.249 455.352 113.183 454.71L117.971 451.418C118.883 450.791 120.135 451.054 120.718 451.995C123.796 456.969 122.295 463.494 117.352 466.621L108.873 471.985C104.439 474.79 98.6528 474.147 94.9425 470.437Z" stroke="#10DCB6" stroke-width="2.11795"/>
<path d="M239.768 469.927L239.618 469.777C238.74 468.899 238.844 467.448 239.837 466.703L244.428 463.259C245.35 462.568 246.662 462.777 247.323 463.721L248.554 465.479C249.184 466.38 250.415 466.619 251.336 466.02L258.113 461.615C259.08 460.986 259.334 459.681 258.672 458.735L257.493 457.05C256.843 456.122 257.075 454.842 258.008 454.2L262.796 450.908C263.709 450.281 264.96 450.544 265.543 451.485C268.622 456.459 267.12 462.984 262.177 466.111L253.699 471.475C249.265 474.28 243.478 473.637 239.768 469.927Z" stroke="#10DCB6" stroke-width="2.11795"/>
<path d="M238.59 423.96L232.773 422.223C229.621 421.282 227.543 418.282 227.769 415C227.823 414.224 228.551 413.675 229.312 413.838L232.072 414.428C233.131 414.655 233.792 415.713 233.531 416.763C233.282 417.765 233.871 418.784 234.864 419.068L238.417 420.081C239.437 420.372 240.495 419.759 240.751 418.73C241.002 417.719 242.029 417.107 243.037 417.367L245.895 418.102C246.555 418.272 246.939 418.959 246.737 419.611C245.674 423.049 242.039 424.99 238.59 423.96Z" stroke="#10DCB6" stroke-width="2.11795"/>
<path d="M67.8588 362.557L62.0419 360.82C58.89 359.879 56.8115 356.879 57.0377 353.597C57.0913 352.821 57.82 352.272 58.5809 352.435L61.3408 353.025C62.3995 353.252 63.0603 354.31 62.7993 355.36C62.5504 356.362 63.1402 357.381 64.133 357.665L67.6858 358.678C68.7057 358.969 69.7636 358.356 70.0193 357.327C70.2704 356.316 71.2973 355.704 72.3059 355.964L75.1636 356.699C75.8235 356.869 76.2074 357.556 76.006 358.207C74.9426 361.646 71.3078 363.587 67.8588 362.557Z" stroke="#10DCB6" stroke-width="2.11795"/>
<path d="M224.923 298.303L219.106 296.566C215.954 295.625 213.876 292.625 214.102 289.344C214.156 288.567 214.884 288.018 215.645 288.181L218.405 288.771C219.464 288.998 220.125 290.056 219.864 291.107C219.615 292.109 220.204 293.128 221.197 293.411L224.75 294.424C225.77 294.715 226.828 294.103 227.084 293.074C227.335 292.063 228.362 291.451 229.37 291.71L232.228 292.446C232.888 292.616 233.272 293.303 233.07 293.954C232.007 297.393 228.372 299.333 224.923 298.303Z" stroke="#10DCB6" stroke-width="2.11795"/>
<path d="M313.654 355.418L307.837 353.681C304.685 352.74 302.607 349.74 302.833 346.458C302.887 345.682 303.615 345.133 304.376 345.295L307.136 345.886C308.195 346.112 308.856 347.17 308.595 348.221C308.346 349.223 308.936 350.242 309.928 350.525L313.481 351.539C314.501 351.83 315.559 351.217 315.815 350.188C316.066 349.177 317.093 348.565 318.101 348.825L320.959 349.56C321.619 349.73 322.003 350.417 321.801 351.068C320.738 354.507 317.103 356.447 313.654 355.418Z" stroke="#10DCB6" stroke-width="2.11795"/>
<path d="M144.439 351.859L145.506 349.981C146.125 348.893 147.569 348.613 148.549 349.393L154.344 354.001C155.239 354.712 155.375 356.02 154.645 356.899L152.613 359.352C151.917 360.191 152.004 361.428 152.81 362.162L160.265 368.951C161.126 369.735 162.466 369.641 163.209 368.745L165.12 366.439C165.849 365.559 167.159 365.45 168.024 366.198L173.57 370.993C174.444 371.748 174.517 373.078 173.73 373.924L172.894 374.825C168.669 379.37 161.557 379.624 157.021 375.39L146.537 365.606C142.739 362.062 141.871 356.374 144.439 351.859Z" stroke="#10DCB6" stroke-width="2.11795"/>
<path d="M103.759 495.09C97.858 484.839 91.0995 492.179 89.2822 497.54C80.6045 493.709 76.9613 501.69 80.3356 508.574C83.035 514.081 98.9498 514.334 98.9498 514.334C98.9498 514.334 107.321 501.278 103.759 495.09Z" stroke="#10DCB6" stroke-width="2.11795"/>
<path d="M274.323 333.35C270.257 322.243 262.346 328.323 259.641 333.295C251.743 328.041 246.793 335.284 248.944 342.643C250.665 348.529 266.304 351.492 266.304 351.492C266.304 351.492 276.778 340.054 274.323 333.35Z" stroke="#10DCB6" stroke-width="2.11795"/>
<path d="M106.16 337.096C112.852 327.343 103.312 324.422 97.6919 325.101C97.3941 315.62 88.6224 315.786 83.8742 321.805C80.0756 326.62 86.7285 341.08 86.7285 341.08C86.7285 341.08 102.121 342.983 106.16 337.096Z" stroke="#10DCB6" stroke-width="2.11795"/>
<path d="M203.79 139.275C203.79 127.447 194.27 130.436 190.021 134.176C184.411 126.526 177.272 131.626 176.762 139.275C176.354 145.395 190.021 153.553 190.021 153.553C190.021 153.553 203.79 146.414 203.79 139.275Z" stroke="#10DCB6" stroke-width="2.11795"/>
<path d="M80.8909 152.009C80.8909 145.238 75.5045 146.95 73.0999 149.09C69.9257 144.712 65.886 147.631 65.5975 152.009C65.3666 155.512 73.0999 160.183 73.0999 160.183C73.0999 160.183 80.8909 156.096 80.8909 152.009Z" stroke="#10DCB6" stroke-width="2.11795"/>
<path d="M311.031 168.815C308.014 162.753 303.954 166.685 302.755 169.673C297.963 167.168 295.647 171.581 297.34 175.63C298.694 178.869 307.699 179.604 307.699 179.604C307.699 179.604 312.852 172.473 311.031 168.815Z" stroke="#10DCB6" stroke-width="2.11795"/>
<path d="M305.287 25.6331C308.245 19.5424 302.652 18.7286 299.554 19.6038C298.611 14.2785 293.702 15.1395 291.53 18.9524C289.792 22.0026 294.708 29.5821 294.708 29.5821C294.708 29.5821 303.502 29.3093 305.287 25.6331Z" stroke="#10DCB6" stroke-width="2.11795"/>
<path d="M73.8714 9.32774C72.7478 5.13422 69.6958 7.08786 68.5617 8.81273C65.8692 6.62763 63.8517 9.10587 64.3996 11.8657C64.838 14.0736 70.4026 15.6828 70.4026 15.6828C70.4026 15.6828 74.5496 11.8588 73.8714 9.32774Z" stroke="#10DCB6" stroke-width="2.11795"/>
<path d="M270.712 254.103C269.588 249.91 266.536 251.863 265.402 253.588C262.709 251.403 260.692 253.881 261.24 256.641C261.678 258.849 267.243 260.458 267.243 260.458C267.243 260.458 271.39 256.634 270.712 254.103Z" stroke="#10DCB6" stroke-width="2.11795"/>
<path d="M74.8913 257.163C73.7676 252.969 70.7156 254.923 69.5816 256.648C66.889 254.463 64.8715 256.941 65.4195 259.701C65.8578 261.909 71.4224 263.518 71.4224 263.518C71.4224 263.518 75.5695 259.694 74.8913 257.163Z" stroke="#10DCB6" stroke-width="2.11795"/>
<path d="M196.772 51.6426C197.895 47.4491 194.275 47.615 192.431 48.5417C191.191 45.3031 188.205 46.4406 187.3 49.1046C186.575 51.2359 190.59 55.4118 190.59 55.4118C190.59 55.4118 196.093 54.1737 196.772 51.6426Z" stroke="#10DCB6" stroke-width="2.11795"/>
<path d="M199.405 209.567L192.02 208.828C190.911 208.717 190.096 207.736 190.19 206.625L191.885 186.708C191.981 185.58 192.978 184.746 194.106 184.85L217.542 187.02C218.673 187.125 219.501 188.133 219.383 189.262L217.258 209.667C217.141 210.784 216.144 211.597 215.026 211.486L207.612 210.744C207.12 210.695 206.626 210.826 206.224 211.114L204.798 212.132C203.938 212.747 202.751 212.602 202.064 211.8L200.751 210.269C200.409 209.87 199.927 209.619 199.405 209.567Z" stroke="#10DCB6" stroke-width="2.11795"/>
<path d="M64.1852 206.943L57.9992 207.245C56.8857 207.3 55.9347 206.45 55.8638 205.338L54.7758 188.267C54.7037 187.137 55.5661 186.164 56.6968 186.1L76.8861 184.964C78.02 184.9 78.9876 185.775 79.0384 186.909L79.8244 204.457C79.8747 205.579 79.0082 206.53 77.8863 206.585L71.6718 206.889C71.1776 206.914 70.709 207.117 70.3533 207.461L69.472 208.313C68.7125 209.048 67.5175 209.081 66.7186 208.389L65.6201 207.438C65.2233 207.094 64.7094 206.917 64.1852 206.943Z" stroke="#10DCB6" stroke-width="2.11795"/>
<path d="M211.535 94.7459L205.349 95.0486C204.235 95.103 203.284 94.2535 203.213 93.141L202.125 76.0701C202.053 74.9399 202.916 73.9674 204.046 73.9037L224.236 72.7674C225.37 72.7036 226.337 73.5782 226.388 74.7127L227.174 92.26C227.224 93.3821 226.358 94.3337 225.236 94.3886L219.021 94.6926C218.527 94.7168 218.059 94.9198 217.703 95.2639L216.822 96.1164C216.062 96.8511 214.867 96.8841 214.068 96.1924L212.97 95.2412C212.573 94.8977 212.059 94.7203 211.535 94.7459Z" stroke="#10DCB6" stroke-width="2.11795"/>
<path d="M137.895 167.393L131.709 167.695C130.595 167.75 129.644 166.9 129.573 165.788L128.485 148.717C128.413 147.587 129.276 146.614 130.406 146.551L150.596 145.414C151.73 145.351 152.697 146.225 152.748 147.36L153.534 164.907C153.584 166.029 152.718 166.981 151.596 167.035L145.381 167.34C144.887 167.364 144.419 167.567 144.063 167.911L143.182 168.763C142.422 169.498 141.227 169.531 140.428 168.839L139.33 167.888C138.933 167.545 138.419 167.367 137.895 167.393Z" stroke="#10DCB6" stroke-width="2.11795"/>
<path d="M94.7603 125.082L88.7196 123.715C87.6323 123.469 86.9439 122.396 87.1739 121.305L90.7026 104.567C90.9363 103.459 92.0278 102.754 93.1342 102.995L112.889 107.314C113.998 107.556 114.696 108.658 114.441 109.765L110.493 126.88C110.241 127.975 109.151 128.659 108.056 128.412L101.987 127.038C101.504 126.929 100.999 126.999 100.564 127.235L99.4861 127.82C98.5574 128.324 97.3974 128.036 96.8132 127.155L96.0099 125.944C95.7197 125.507 95.2722 125.198 94.7603 125.082Z" stroke="#10DCB6" stroke-width="2.11795"/>
<path d="M162.82 255.341L156.779 253.974C155.692 253.728 155.003 252.655 155.233 251.564L158.762 234.826C158.996 233.718 160.087 233.013 161.193 233.255L180.948 237.573C182.058 237.815 182.755 238.917 182.5 240.024L178.553 257.14C178.3 258.234 177.21 258.919 176.115 258.671L170.046 257.297C169.564 257.188 169.058 257.258 168.623 257.494L167.545 258.079C166.617 258.583 165.457 258.295 164.872 257.414L164.069 256.203C163.779 255.766 163.331 255.457 162.82 255.341Z" stroke="#10DCB6" stroke-width="2.11795"/>
<path d="M292.347 114.595L286.306 113.228C285.219 112.982 284.53 111.909 284.76 110.818L288.289 94.0806C288.523 92.9725 289.614 92.2668 290.72 92.5086L310.475 96.8269C311.585 97.0695 312.282 98.1715 312.027 99.2781L308.08 116.394C307.827 117.488 306.737 118.173 305.642 117.925L299.573 116.551C299.091 116.442 298.585 116.512 298.15 116.748L297.072 117.333C296.144 117.837 294.984 117.549 294.399 116.668L293.596 115.457C293.306 115.02 292.858 114.711 292.347 114.595Z" stroke="#10DCB6" stroke-width="2.11795"/>
<path d="M138.868 32.904L133.986 33.6104C132.882 33.77 131.855 33.0142 131.679 31.9134L129.447 17.9418C129.268 16.8235 130.035 15.7738 131.155 15.6034L147.785 13.073C148.908 12.9021 149.954 13.6812 150.112 14.8058L152.134 29.2043C152.29 30.3166 151.518 31.346 150.406 31.5068L145.495 32.2172C145.005 32.288 144.558 32.5345 144.237 32.9107L143.79 33.4328C143.104 34.2361 141.917 34.382 141.056 33.769L140.344 33.2613C139.916 32.9569 139.388 32.8289 138.868 32.904Z" stroke="#10DCB6" stroke-width="2.11795"/>
<path d="M94.9425 196.162L94.7927 196.013C93.9149 195.135 94.0181 193.683 95.0112 192.938L99.6026 189.495C100.525 188.803 101.836 189.012 102.498 189.957L103.728 191.715C104.359 192.616 105.589 192.855 106.511 192.255L113.287 187.851C114.255 187.222 114.509 185.916 113.847 184.971L112.667 183.286C112.018 182.358 112.249 181.077 113.183 180.435L117.971 177.144C118.883 176.516 120.135 176.779 120.718 177.721C123.796 182.694 122.295 189.219 117.352 192.346L108.873 197.71C104.439 200.516 98.6528 199.873 94.9425 196.162Z" stroke="#10DCB6" stroke-width="2.11795"/>
<path d="M239.768 195.652L239.618 195.503C238.74 194.625 238.844 193.173 239.837 192.428L244.428 188.985C245.35 188.293 246.662 188.503 247.323 189.447L248.554 191.205C249.184 192.106 250.415 192.345 251.336 191.746L258.113 187.341C259.08 186.712 259.334 185.406 258.672 184.461L257.493 182.776C256.843 181.848 257.075 180.567 258.008 179.925L262.796 176.634C263.709 176.006 264.96 176.269 265.543 177.211C268.622 182.184 267.12 188.709 262.177 191.836L253.699 197.2C249.265 200.006 243.478 199.363 239.768 195.652Z" stroke="#10DCB6" stroke-width="2.11795"/>
<path d="M238.59 149.685L232.773 147.949C229.621 147.008 227.543 144.007 227.769 140.726C227.823 139.949 228.551 139.401 229.312 139.563L232.072 140.154C233.131 140.38 233.792 141.438 233.531 142.489C233.282 143.491 233.871 144.51 234.864 144.793L238.417 145.807C239.437 146.097 240.495 145.485 240.751 144.456C241.002 143.445 242.029 142.833 243.037 143.092L245.895 143.828C246.555 143.998 246.939 144.685 246.737 145.336C245.674 148.775 242.039 150.715 238.59 149.685Z" stroke="#10DCB6" stroke-width="2.11795"/>
<path d="M218.804 257.585L212.987 255.849C209.835 254.908 207.756 251.907 207.983 248.626C208.036 247.849 208.765 247.301 209.526 247.463L212.286 248.054C213.344 248.28 214.005 249.338 213.744 250.389C213.495 251.391 214.085 252.41 215.078 252.693L218.631 253.707C219.651 253.997 220.708 253.385 220.964 252.356C221.215 251.345 222.242 250.733 223.251 250.992L226.108 251.728C226.768 251.898 227.152 252.585 226.951 253.236C225.887 256.675 222.253 258.615 218.804 257.585Z" stroke="#10DCB6" stroke-width="2.11795"/>
<path d="M67.8588 88.2824L62.0419 86.5456C58.89 85.6045 56.8115 82.6044 57.0377 79.3228C57.0913 78.5464 57.82 77.9975 58.5809 78.1603L61.3408 78.7507C62.3995 78.9771 63.0603 80.0352 62.7993 81.0859C62.5504 82.0879 63.1402 83.1069 64.133 83.3901L67.6858 84.4035C68.7057 84.6944 69.7636 84.0821 70.0193 83.0528C70.2704 82.042 71.2973 81.4297 72.3059 81.6894L75.1636 82.425C75.8235 82.5949 76.2074 83.282 76.006 83.9331C74.9426 87.3718 71.3078 89.3122 67.8588 88.2824Z" stroke="#10DCB6" stroke-width="2.11795"/>
<path d="M224.923 24.0289L219.106 22.292C215.954 21.3509 213.876 18.3508 214.102 15.0692C214.156 14.2929 214.884 13.744 215.645 13.9067L218.405 14.4971C219.464 14.7236 220.125 15.7817 219.864 16.8324C219.615 17.8343 220.204 18.8533 221.197 19.1365L224.75 20.1499C225.77 20.4408 226.828 19.8285 227.084 18.7992C227.335 17.7885 228.362 17.1762 229.37 17.4358L232.228 18.1714C232.888 18.3413 233.272 19.0285 233.07 19.6795C232.007 23.1182 228.372 25.0587 224.923 24.0289Z" stroke="#10DCB6" stroke-width="2.11795"/>
<path d="M313.654 81.1431L307.837 79.4063C304.685 78.4652 302.607 75.4651 302.833 72.1835C302.887 71.4072 303.615 70.8582 304.376 71.021L307.136 71.6114C308.195 71.8379 308.856 72.896 308.595 73.9466C308.346 74.9486 308.936 75.9676 309.928 76.2508L313.481 77.2642C314.501 77.5551 315.559 76.9428 315.815 75.9135C316.066 74.9028 317.093 74.2905 318.101 74.5501L320.959 75.2857C321.619 75.4556 322.003 76.1428 321.801 76.7938C320.738 80.2325 317.103 82.1729 313.654 81.1431Z" stroke="#10DCB6" stroke-width="2.11795"/>
<path d="M144.439 77.5845L145.506 75.7065C146.125 74.6181 147.569 74.3389 148.549 75.1182L154.344 79.7269C155.239 80.4381 155.375 81.7452 154.645 82.625L152.613 85.0779C151.917 85.9168 152.004 87.154 152.81 87.8876L160.265 94.6767C161.126 95.4604 162.466 95.3663 163.209 94.4702L165.12 92.1649C165.849 91.2847 167.159 91.1758 168.024 91.9234L173.57 96.7182C174.444 97.4737 174.517 98.8035 173.73 99.6498L172.894 100.55C168.669 105.096 161.557 105.349 157.021 101.115L146.537 91.3315C142.739 87.7874 141.871 82.1 144.439 77.5845Z" stroke="#10DCB6" stroke-width="2.11795"/>
<path d="M103.759 220.816C97.858 210.565 91.0995 217.904 89.2822 223.265C80.6045 219.435 76.9613 227.416 80.3356 234.3C83.035 239.807 98.9498 240.06 98.9498 240.06C98.9498 240.06 107.321 227.003 103.759 220.816Z" stroke="#10DCB6" stroke-width="2.11795"/>
<path d="M315.032 239.786C318.701 228.541 308.725 228.43 303.525 230.667C300.565 221.655 292.196 224.288 289.338 231.402C287.052 237.093 297.514 249.089 297.514 249.089C297.514 249.089 312.818 246.573 315.032 239.786Z" stroke="#10DCB6" stroke-width="2.11795"/>
<path d="M274.323 59.0755C270.257 47.9684 262.346 54.0483 259.641 59.021C251.743 53.767 246.793 61.0101 248.944 68.3684C250.665 74.255 266.304 77.2175 266.304 77.2175C266.304 77.2175 276.778 65.7795 274.323 59.0755Z" stroke="#10DCB6" stroke-width="2.11795"/>
<path d="M106.16 62.8216C112.852 53.0684 103.312 50.1476 97.6919 50.8269C97.3941 41.346 88.6224 41.5116 83.8742 47.5304C80.0756 52.3455 86.7285 66.8053 86.7285 66.8053C86.7285 66.8053 102.121 68.7084 106.16 62.8216Z" stroke="#10DCB6" stroke-width="2.11795"/>
<path d="M35.698 443.089C32.6807 437.028 28.6212 440.96 27.4225 443.948C22.6297 441.442 20.314 445.855 22.0069 449.904C23.3613 453.143 32.3655 453.878 32.3655 453.878C32.3655 453.878 37.5191 446.748 35.698 443.089Z" stroke="#10DCB6" stroke-width="2.11795"/>
<path d="M29.9539 299.908C32.9117 293.817 27.319 293.003 24.2208 293.878C23.2782 288.553 18.3692 289.414 16.1969 293.227C14.4589 296.277 19.3751 303.857 19.3751 303.857C19.3751 303.857 28.1686 303.584 29.9539 299.908Z" stroke="#10DCB6" stroke-width="2.11795"/>
<path d="M17.0136 388.87L10.9729 387.503C9.8856 387.257 9.19723 386.183 9.42721 385.093L12.9559 368.355C13.1895 367.247 14.2811 366.541 15.3875 366.783L35.1422 371.101C36.2517 371.344 36.9494 372.446 36.6942 373.553L32.7467 390.668C32.4943 391.763 31.4045 392.447 30.3089 392.199L24.2404 390.826C23.7578 390.717 23.2519 390.787 22.817 391.023L21.7394 391.608C20.8107 392.112 19.6507 391.823 19.0665 390.943L18.2632 389.732C17.973 389.294 17.5255 388.986 17.0136 388.87Z" stroke="#10DCB6" stroke-width="2.11795"/>
<path d="M38.3212 355.418L32.5043 353.681C29.3524 352.74 27.2738 349.74 27.5001 346.458C27.5536 345.682 28.2823 345.133 29.0433 345.295L31.8032 345.886C32.8618 346.112 33.5227 347.17 33.2616 348.221C33.0127 349.223 33.6025 350.242 34.5954 350.525L38.1481 351.539C39.168 351.83 40.2259 351.217 40.4816 350.188C40.7328 349.177 41.7596 348.565 42.7682 348.825L45.6259 349.56C46.2859 349.73 46.6697 350.417 46.4684 351.068C45.4049 354.507 41.7701 356.447 38.3212 355.418Z" stroke="#10DCB6" stroke-width="2.11795"/>
<path d="M35.698 168.815C32.6807 162.753 28.6212 166.685 27.4225 169.673C22.6297 167.168 20.314 171.581 22.0069 175.63C23.3613 178.869 32.3655 179.604 32.3655 179.604C32.3655 179.604 37.5191 172.473 35.698 168.815Z" stroke="#10DCB6" stroke-width="2.11795"/>
<path d="M29.9539 25.6331C32.9117 19.5424 27.319 18.7286 24.2208 19.6038C23.2782 14.2785 18.3692 15.1395 16.1969 18.9524C14.4589 22.0026 19.3751 29.5821 19.3751 29.5821C19.3751 29.5821 28.1686 29.3093 29.9539 25.6331Z" stroke="#10DCB6" stroke-width="2.11795"/>
<path d="M17.0136 114.595L10.9729 113.228C9.8856 112.982 9.19723 111.909 9.42721 110.818L12.9559 94.0806C13.1895 92.9725 14.2811 92.2668 15.3875 92.5086L35.1422 96.8269C36.2517 97.0695 36.9494 98.1715 36.6942 99.2781L32.7467 116.394C32.4943 117.488 31.4045 118.173 30.3089 117.925L24.2404 116.551C23.7578 116.442 23.2519 116.512 22.817 116.748L21.7394 117.333C20.8107 117.837 19.6507 117.549 19.0665 116.668L18.2632 115.457C17.973 115.02 17.5255 114.711 17.0136 114.595Z" stroke="#10DCB6" stroke-width="2.11795"/>
<path d="M38.3212 81.1431L32.5043 79.4063C29.3524 78.4652 27.2738 75.4651 27.5001 72.1835C27.5536 71.4072 28.2823 70.8582 29.0433 71.021L31.8032 71.6114C32.8618 71.8379 33.5227 72.896 33.2616 73.9466C33.0127 74.9486 33.6025 75.9676 34.5954 76.2508L38.1481 77.2642C39.168 77.5551 40.2259 76.9428 40.4816 75.9135C40.7328 74.9028 41.7596 74.2905 42.7682 74.5501L45.6259 75.2857C46.2859 75.4556 46.6697 76.1428 46.4684 76.7938C45.4049 80.2325 41.7701 82.1729 38.3212 81.1431Z" stroke="#10DCB6" stroke-width="2.11795"/>
<path d="M39.6993 239.786C43.3685 228.541 33.3917 228.43 28.1918 230.667C25.2317 221.655 16.8629 224.288 14.0053 231.402C11.7191 237.093 22.1807 249.089 22.1807 249.089C22.1807 249.089 37.4847 246.573 39.6993 239.786Z" stroke="#10DCB6" stroke-width="2.11795"/>
<path d="M356.225 426.284C356.225 419.513 350.839 421.224 348.434 423.365C345.26 418.986 341.22 421.905 340.931 426.284C340.701 429.787 348.434 434.457 348.434 434.457C348.434 434.457 356.225 430.371 356.225 426.284Z" stroke="#10DCB6" stroke-width="2.11795"/>
<path d="M349.205 283.602C348.082 279.409 345.03 281.362 343.896 283.087C341.203 280.902 339.186 283.38 339.734 286.14C340.172 288.348 345.737 289.957 345.737 289.957C345.737 289.957 349.884 286.133 349.205 283.602Z" stroke="#10DCB6" stroke-width="2.11795"/>
<path d="M339.519 481.217L333.333 481.52C332.22 481.574 331.269 480.725 331.198 479.612L330.11 462.541C330.038 461.411 330.9 460.438 332.031 460.375L352.22 459.239C353.354 459.175 354.322 460.049 354.372 461.184L355.158 478.731C355.209 479.853 354.342 480.805 353.22 480.86L347.006 481.164C346.512 481.188 346.043 481.391 345.687 481.735L344.806 482.587C344.047 483.322 342.852 483.355 342.053 482.663L340.954 481.712C340.557 481.369 340.043 481.191 339.519 481.217Z" stroke="#10DCB6" stroke-width="2.11795"/>
<path d="M370.094 399.357L364.054 397.99C362.966 397.744 362.278 396.67 362.508 395.579L366.037 378.842C366.27 377.734 367.362 377.028 368.468 377.27L388.223 381.588C389.332 381.831 390.03 382.933 389.775 384.039L385.827 401.155C385.575 402.249 384.485 402.934 383.39 402.686L377.321 401.313C376.838 401.203 376.333 401.273 375.898 401.509L374.82 402.094C373.891 402.599 372.731 402.31 372.147 401.429L371.344 400.219C371.054 399.781 370.606 399.473 370.094 399.357Z" stroke="#10DCB6" stroke-width="2.11795"/>
<path d="M343.193 362.557L337.376 360.82C334.224 359.879 332.145 356.879 332.372 353.597C332.425 352.821 333.154 352.272 333.915 352.435L336.675 353.025C337.733 353.252 338.394 354.31 338.133 355.36C337.884 356.362 338.474 357.381 339.467 357.665L343.02 358.678C344.04 358.969 345.098 358.356 345.353 357.327C345.604 356.316 346.631 355.704 347.64 355.964L350.498 356.699C351.157 356.869 351.541 357.556 351.34 358.207C350.277 361.646 346.642 363.587 343.193 362.557Z" stroke="#10DCB6" stroke-width="2.11795"/>
<path d="M379.093 495.09C373.192 484.839 366.434 492.179 364.616 497.54C355.939 493.709 352.295 501.69 355.67 508.574C358.369 514.081 374.284 514.334 374.284 514.334C374.284 514.334 382.655 501.278 379.093 495.09Z" stroke="#10DCB6" stroke-width="2.11795"/>
<path d="M381.494 337.096C388.186 327.343 378.646 324.422 373.026 325.101C372.728 315.62 363.956 315.786 359.208 321.805C355.41 326.62 362.063 341.08 362.063 341.08C362.063 341.08 377.455 342.983 381.494 337.096Z" stroke="#10DCB6" stroke-width="2.11795"/>
<path d="M356.225 152.009C356.225 145.238 350.839 146.95 348.434 149.09C345.26 144.712 341.22 147.631 340.931 152.009C340.701 155.512 348.434 160.183 348.434 160.183C348.434 160.183 356.225 156.096 356.225 152.009Z" stroke="#10DCB6" stroke-width="2.11795"/>
<path d="M349.205 9.32774C348.082 5.13422 345.03 7.08786 343.896 8.81273C341.203 6.62763 339.186 9.10587 339.734 11.8657C340.172 14.0736 345.737 15.6828 345.737 15.6828C345.737 15.6828 349.884 11.8588 349.205 9.32774Z" stroke="#10DCB6" stroke-width="2.11795"/>
<path d="M350.225 257.163C349.102 252.969 346.05 254.923 344.916 256.648C342.223 254.463 340.206 256.941 340.754 259.701C341.192 261.909 346.756 263.518 346.756 263.518C346.756 263.518 350.904 259.694 350.225 257.163Z" stroke="#10DCB6" stroke-width="2.11795"/>
<path d="M339.519 206.943L333.333 207.245C332.22 207.3 331.269 206.45 331.198 205.338L330.11 188.267C330.038 187.137 330.9 186.164 332.031 186.1L352.22 184.964C353.354 184.9 354.322 185.775 354.372 186.909L355.158 204.457C355.209 205.579 354.342 206.53 353.22 206.585L347.006 206.889C346.512 206.914 346.043 207.117 345.687 207.461L344.806 208.313C344.047 209.048 342.852 209.081 342.053 208.389L340.954 207.438C340.557 207.094 340.043 206.917 339.519 206.943Z" stroke="#10DCB6" stroke-width="2.11795"/>
<path d="M370.094 125.082L364.054 123.715C362.966 123.469 362.278 122.396 362.508 121.305L366.037 104.567C366.27 103.459 367.362 102.754 368.468 102.995L388.223 107.314C389.332 107.556 390.03 108.658 389.775 109.765L385.827 126.88C385.575 127.975 384.485 128.659 383.39 128.412L377.321 127.038C376.838 126.929 376.333 126.999 375.898 127.235L374.82 127.82C373.891 128.324 372.731 128.036 372.147 127.155L371.344 125.944C371.054 125.507 370.606 125.198 370.094 125.082Z" stroke="#10DCB6" stroke-width="2.11795"/>
<path d="M343.193 88.2824L337.376 86.5456C334.224 85.6045 332.145 82.6044 332.372 79.3228C332.425 78.5464 333.154 77.9975 333.915 78.1603L336.675 78.7507C337.733 78.9771 338.394 80.0352 338.133 81.0859C337.884 82.0879 338.474 83.1069 339.467 83.3901L343.02 84.4035C344.04 84.6944 345.098 84.0821 345.353 83.0528C345.604 82.042 346.631 81.4297 347.64 81.6894L350.498 82.425C351.157 82.5949 351.541 83.282 351.34 83.9331C350.277 87.3718 346.642 89.3122 343.193 88.2824Z" stroke="#10DCB6" stroke-width="2.11795"/>
<path d="M379.093 220.816C373.192 210.565 366.434 217.904 364.616 223.265C355.939 219.435 352.295 227.416 355.67 234.3C358.369 239.807 374.284 240.06 374.284 240.06C374.284 240.06 382.655 227.003 379.093 220.816Z" stroke="#10DCB6" stroke-width="2.11795"/>
<path d="M381.494 62.8216C388.186 53.0684 378.646 50.1476 373.026 50.8269C372.728 41.346 363.956 41.5116 359.208 47.5304C355.41 52.3455 362.063 66.8053 362.063 66.8053C362.063 66.8053 377.455 68.7084 381.494 62.8216Z" stroke="#10DCB6" stroke-width="2.11795"/>
<rect y="90" width="375" height="414" fill="url(#paint0_linear_4612_54547)"/>
</g>
<defs>
<linearGradient id="paint0_linear_4612_54547" x1="187.5" y1="437.5" x2="187.5" y2="504" gradientUnits="userSpaceOnUse">
<stop stop-color="white" stop-opacity="0"/>
<stop offset="1" stop-color="white"/>
</linearGradient>
<clipPath id="clip0_4612_54547">
<rect width="375" height="502" fill="white"/>
</clipPath>
</defs>
</svg>
